<?xml version="1.0" standalone="no"?>
<!DOCTYPE svg PUBLIC "-//W3C//DTD SVG 20010904//EN"
 "http://www.w3.org/TR/2001/REC-SVG-20010904/DTD/svg10.dtd">
<svg version="1.0" xmlns="http://www.w3.org/2000/svg"
 width="1000.000000pt" height="1000.000000pt" viewBox="0 0 1000.000000 1000.000000"
 preserveAspectRatio="xMidYMid meet">

<g transform="translate(0.000000,1000.000000) scale(0.100000,-0.100000)"
fill="#000000" stroke="none">
<path d="M0 5000 l0 -5000 5000 0 5000 0 0 5000 0 5000 -5000 0 -5000 0 0
-5000z m5135 3243 c199 -302 869 -1309 874 -1313 10 -8 71 -111 71 -119 0 -4
9 -16 20 -26 11 -10 20 -23 20 -30 0 -7 9 -20 20 -30 11 -10 20 -23 20 -30 0
-7 9 -20 20 -30 11 -10 20 -23 20 -30 0 -7 9 -20 20 -30 11 -10 20 -21 20 -26
0 -4 16 -31 36 -60 20 -30 40 -64 45 -76 5 -13 13 -23 18 -23 5 0 13 -10 17
-22 3 -13 13 -30 20 -38 27 -29 64 -78 64 -84 0 -3 18 -32 40 -63 22 -32 40
-63 40 -70 0 -6 3 -13 8 -15 12 -5 72 -86 72 -98 0 -6 9 -21 20 -33 11 -12 93
-130 182 -262 88 -132 174 -256 190 -276 15 -20 28 -40 28 -43 0 -4 32 -54 70
-111 39 -57 70 -108 71 -112 0 -4 16 -28 34 -53 19 -25 47 -65 61 -90 15 -25
35 -54 45 -65 9 -11 30 -46 47 -77 16 -31 34 -54 38 -50 5 4 2 -1 -5 -10 -12
-16 -10 -20 16 -35 17 -9 43 -39 58 -67 15 -28 34 -58 42 -66 41 -47 64 -81
59 -89 -4 -5 -1 -13 5 -17 8 -4 9 -3 5 4 -4 7 -5 12 -2 12 4 0 67 -95 75 -114
2 -5 19 -29 37 -54 28 -35 34 -53 34 -90 0 -26 -7 -60 -15 -76 -8 -15 -15 -33
-15 -39 0 -6 -10 -43 -21 -82 -12 -38 -35 -113 -51 -165 -16 -52 -34 -113 -39
-135 -6 -22 -15 -48 -20 -57 -5 -10 -9 -29 -9 -42 0 -14 -4 -28 -10 -31 -6 -3
-10 -14 -10 -23 0 -16 -22 -93 -60 -212 -10 -30 -23 -77 -30 -105 -7 -27 -17
-54 -21 -60 -5 -5 -9 -18 -9 -30 0 -11 -9 -45 -20 -75 -11 -30 -20 -64 -20
-76 0 -11 -3 -24 -7 -28 -9 -9 -33 -78 -33 -96 0 -19 -45 -162 -59 -189 -9
-16 -232 -171 -246 -171 -2 0 -23 -13 -47 -29 -24 -16 -59 -38 -78 -49 -90
-51 -255 -153 -270 -167 -9 -8 -19 -15 -23 -15 -3 0 -68 -37 -144 -83 -182
-110 -290 -175 -333 -199 -19 -11 -64 -39 -100 -63 -69 -45 -368 -225 -374
-225 -2 0 -36 -22 -77 -48 -41 -27 -96 -61 -124 -77 -27 -15 -79 -46 -115 -70
-36 -23 -85 -54 -110 -67 -25 -14 -63 -37 -84 -52 -51 -35 -84 -42 -110 -26
-12 8 -61 38 -111 68 -49 30 -99 63 -110 72 -11 10 -47 33 -80 51 -33 18 -80
47 -105 64 -25 17 -76 49 -113 71 -38 21 -81 47 -95 56 -15 9 -58 35 -97 58
-38 22 -124 74 -190 115 -66 41 -142 87 -170 103 -46 27 -205 121 -400 237
-44 27 -116 71 -160 100 -44 28 -91 58 -105 65 -14 7 -77 47 -140 89 -63 42
-151 96 -194 121 -89 50 -115 83 -119 149 -1 22 -4 41 -7 41 -8 0 -30 63 -30
86 0 11 -4 24 -9 29 -5 6 -16 39 -26 75 -9 36 -25 94 -34 130 -10 36 -23 78
-29 93 -7 15 -14 40 -18 55 -3 15 -14 50 -24 77 -17 47 -52 163 -69 230 -24
88 -34 122 -42 137 -5 10 -9 25 -9 33 0 8 -4 23 -9 33 -5 9 -15 37 -22 62 -7
25 -16 49 -21 55 -4 5 -8 24 -8 41 0 18 -4 36 -10 39 -5 3 -10 17 -10 30 0 13
-4 27 -10 30 -5 3 -10 16 -10 27 0 12 -9 48 -21 80 -16 46 -18 65 -11 87 10
30 450 693 792 1195 8 12 29 44 45 70 17 26 49 73 73 103 23 31 42 59 42 63 0
5 60 97 133 206 72 109 140 210 149 226 10 15 36 53 58 85 22 32 71 103 107
158 36 55 82 124 102 154 20 29 41 60 46 70 6 9 33 49 60 90 28 40 55 82 61
92 6 10 18 27 27 37 10 10 17 21 17 25 0 3 13 26 30 49 16 24 54 79 83 123 29
44 66 100 82 124 17 24 35 52 40 61 6 10 17 26 25 35 8 9 19 25 25 35 5 10 34
53 63 95 28 42 52 78 52 80 0 2 15 25 33 51 17 25 37 53 42 62 6 9 42 63 80
120 39 57 78 118 88 135 11 18 31 48 45 67 15 19 32 42 37 52 6 9 32 52 58 95
126 205 142 226 161 220 6 -1 38 -44 71 -94z"/>
<path d="M5050 8256 c0 -8 -4 -16 -9 -18 -14 -5 -151 -234 -151 -252 0 -9 6
-16 14 -16 7 0 19 -7 26 -15 7 -8 19 -15 26 -15 23 0 16 26 -11 38 -14 6 -25
18 -25 25 0 26 120 197 139 197 17 0 101 -118 101 -143 0 -7 9 -18 20 -25 11
-7 20 -19 20 -27 0 -8 -9 -15 -20 -15 -12 0 -20 -7 -20 -16 0 -36 -47 19 -80
94 -5 12 -15 22 -23 22 -13 0 -82 -119 -73 -127 9 -10 27 9 41 43 20 47 41 42
83 -21 32 -49 52 -67 52 -46 0 6 7 11 15 11 8 0 15 5 15 10 0 6 7 10 15 10 23
0 29 26 11 52 -9 12 -16 28 -16 36 0 7 -11 24 -25 37 -13 14 -43 57 -66 95
-43 74 -59 91 -59 66z"/>
<path d="M4838 7917 c-8 -7 -30 -37 -49 -67 -19 -30 -42 -63 -51 -72 -27 -27
-22 -56 15 -78 36 -23 66 -23 77 0 4 8 14 28 21 43 7 16 25 41 40 55 36 37 46
79 19 87 -11 3 -20 10 -20 15 0 18 -36 30 -52 17z m42 -56 c0 -35 -19 -70 -61
-116 -43 -46 -53 -49 -62 -16 -5 20 32 100 61 134 21 24 62 23 62 -2z"/>
<path d="M5218 7900 l-26 -30 39 -69 c22 -37 53 -81 69 -96 l29 -28 33 20 c30
17 52 63 30 63 -9 0 -92 133 -92 149 0 7 -31 20 -50 21 -3 0 -17 -14 -32 -30z
m82 -42 c31 -32 60 -93 60 -123 0 -27 -10 -31 -41 -15 -21 12 -89 113 -89 134
0 33 40 35 70 4z"/>
<path d="M5023 7883 c-15 -21 -31 -39 -35 -41 -5 -2 -8 -11 -8 -19 0 -8 -13
-31 -30 -50 -16 -18 -30 -39 -30 -44 0 -10 -21 -39 -63 -89 -13 -16 -23 -31
-51 -81 -10 -19 -25 -38 -32 -42 -22 -12 -17 -31 14 -54 46 -34 69 -37 83 -12
6 13 16 28 21 33 9 10 51 73 119 179 17 26 38 47 48 47 13 0 101 -117 101
-135 0 -3 18 -28 40 -56 22 -28 40 -57 40 -64 0 -34 49 -25 83 14 21 26 21 35
3 50 -7 6 -16 25 -20 41 -3 17 -19 44 -36 60 -16 16 -30 36 -30 44 0 8 -4 17
-9 21 -11 6 -85 117 -126 188 -15 26 -33 47 -40 47 -8 0 -27 -17 -42 -37z m52
-33 c7 -33 1 -50 -21 -50 -10 0 -14 12 -14 40 0 48 25 56 35 10z m-41 -93 c5
-19 -42 -96 -90 -148 -13 -14 -24 -29 -24 -33 0 -4 -8 -20 -19 -34 -10 -15
-20 -36 -23 -47 -2 -15 -10 -19 -28 -17 -44 7 -50 19 -30 60 10 20 36 57 57
82 21 25 44 57 51 73 6 15 16 27 22 27 5 0 10 7 10 16 0 8 8 26 17 38 14 18
21 21 35 13 9 -6 19 -20 22 -30z m124 -4 c16 -21 33 -49 37 -63 4 -14 19 -38
34 -55 34 -37 91 -127 91 -143 0 -7 -13 -12 -30 -12 -32 0 -75 38 -84 76 -3
12 -18 36 -33 52 -38 39 -93 130 -93 152 0 18 12 28 37 29 6 1 25 -16 41 -36z"/>
<path d="M4635 7624 c-19 -26 -35 -52 -35 -58 0 -6 -13 -24 -30 -39 -16 -16
-30 -34 -30 -40 0 -17 -149 -235 -166 -241 -8 -3 -14 -14 -14 -23 0 -10 -9
-25 -20 -33 -44 -32 -16 -88 54 -106 21 -5 27 -2 35 17 5 13 18 33 30 43 11
11 21 26 21 33 0 18 78 133 103 151 9 7 17 20 17 28 0 24 44 84 61 84 27 0 33
-57 9 -87 -11 -14 -20 -31 -20 -38 0 -7 -11 -20 -25 -29 -14 -9 -25 -25 -25
-34 0 -10 -13 -31 -30 -47 -45 -43 -36 -85 18 -85 21 0 23 4 18 23 -14 45 -13
53 10 84 13 17 24 36 24 42 0 6 4 11 10 11 5 0 17 14 26 32 l16 32 14 -25 c19
-35 17 -62 -6 -77 -11 -7 -20 -21 -20 -32 0 -12 -7 -23 -15 -27 -18 -6 -60
-82 -51 -91 10 -9 57 41 71 76 8 17 19 32 24 32 6 0 11 9 11 20 0 11 4 20 8
20 4 0 16 13 25 30 10 16 24 36 32 44 8 8 16 29 17 48 3 29 0 33 -24 36 -16 2
-30 11 -33 23 -4 10 -12 19 -19 19 -7 0 -25 9 -39 20 -30 23 -57 26 -57 6 0
-16 -54 -101 -71 -111 -5 -4 -18 -26 -29 -50 -11 -24 -35 -60 -54 -79 -19 -20
-37 -48 -40 -61 -7 -28 -50 -60 -66 -50 -18 11 -11 59 10 73 11 7 20 21 20 32
0 11 5 20 10 20 6 0 10 5 10 10 0 16 140 223 161 238 10 7 19 20 19 28 0 16
32 64 68 100 22 24 30 54 12 54 -5 0 -25 -21 -45 -46z m113 -246 c17 -17 15
-58 -2 -58 -18 0 -29 17 -31 47 -1 25 14 30 33 11z"/>
<path d="M5436 7661 c-4 -6 -23 -18 -41 -25 -33 -14 -33 -16 -22 -45 6 -17 15
-31 19 -31 4 0 8 -9 8 -20 0 -24 13 -26 30 -5 10 13 8 19 -14 36 -28 22 -31
50 -6 55 8 1 22 5 30 8 14 5 40 -32 40 -56 0 -4 16 -25 35 -45 20 -21 38 -48
42 -61 3 -12 19 -37 36 -55 16 -17 36 -46 43 -63 7 -17 20 -36 28 -44 9 -7 16
-21 16 -31 0 -10 9 -24 19 -31 25 -17 63 -83 65 -110 1 -29 26 -36 26 -8 0 23
-72 151 -96 171 -8 6 -14 17 -14 24 0 7 -18 35 -40 63 -22 27 -40 53 -40 57 0
4 -16 29 -35 55 -19 26 -32 50 -28 54 3 3 1 6 -5 6 -7 0 -12 6 -12 14 0 21
-76 100 -84 87z"/>
<path d="M4700 7645 c0 -2 5 -16 12 -31 11 -23 10 -28 -11 -45 -14 -11 -21
-25 -17 -34 8 -22 36 -18 36 5 0 11 3 20 8 20 14 0 32 53 22 66 -10 11 -50 26
-50 19z"/>
<path d="M4999 7548 c-25 -35 -112 -164 -194 -288 -81 -124 -229 -346 -327
-495 -98 -148 -182 -274 -186 -280 -5 -5 -306 -457 -670 -1003 -419 -627 -662
-1001 -662 -1017 0 -19 17 -35 83 -78 45 -30 94 -60 109 -68 15 -8 75 -43 133
-79 58 -36 114 -70 124 -75 11 -6 27 -17 36 -25 22 -18 48 -33 110 -64 60 -31
72 -26 127 55 21 30 41 59 46 64 4 6 8 12 8 15 -1 3 17 30 39 60 22 30 42 60
45 65 7 13 66 105 152 233 37 56 68 105 68 109 0 3 8 15 17 25 9 10 30 40 47
67 17 27 118 178 224 336 105 158 192 290 192 295 0 4 9 15 20 25 11 10 20 23
20 29 0 6 17 34 38 61 20 28 50 70 66 94 16 25 33 50 37 55 7 9 91 136 184
278 72 110 147 217 159 227 13 11 19 11 32 0 13 -11 84 -110 119 -168 6 -9 28
-45 49 -81 22 -36 43 -67 46 -70 10 -8 70 -98 70 -105 0 -3 9 -18 19 -33 11
-15 48 -72 84 -127 35 -55 71 -106 80 -114 10 -7 17 -18 17 -23 0 -5 30 -53
67 -106 36 -53 95 -140 130 -192 35 -52 67 -100 72 -106 16 -19 151 -218 178
-259 117 -184 164 -258 193 -300 42 -61 179 -267 195 -294 6 -9 12 -18 15 -21
3 -3 18 -24 34 -48 16 -24 42 -52 57 -62 25 -19 28 -19 50 -2 39 28 62 41 98
58 19 8 40 22 48 30 8 8 18 14 23 14 5 0 44 24 87 52 82 56 118 77 169 102 17
8 36 22 44 30 7 9 18 16 25 16 6 0 20 9 30 20 10 11 23 20 30 20 19 0 55 45
55 69 0 18 -74 138 -132 216 -4 6 -185 277 -400 603 -216 325 -403 607 -415
625 -12 17 -30 48 -40 67 -10 19 -26 44 -35 54 -10 11 -24 32 -30 48 -7 15
-16 28 -20 28 -5 0 -8 5 -8 11 0 6 -17 31 -39 57 -37 45 -191 268 -257 373
-17 27 -38 57 -47 67 -9 10 -17 21 -17 24 0 7 -112 175 -163 243 -20 28 -37
56 -37 63 0 6 -4 12 -8 12 -5 0 -15 12 -23 28 -8 15 -22 36 -31 46 -10 11 -18
26 -18 33 0 7 -4 13 -9 13 -5 0 -16 15 -25 34 -8 18 -22 39 -31 46 -8 7 -15
18 -15 25 0 6 -9 20 -20 30 -11 10 -20 22 -20 27 0 5 -9 21 -19 36 -10 15 -56
83 -101 152 -86 130 -126 180 -145 180 -6 0 -32 -28 -56 -62z"/>
<path d="M5444 7466 c-3 -8 -18 -18 -34 -21 -16 -3 -34 -13 -41 -22 -11 -12
-9 -18 10 -32 15 -12 22 -25 19 -42 -4 -29 -38 -40 -38 -12 0 11 -5 24 -12 31
-9 9 -9 12 0 12 7 0 12 5 12 10 0 18 -29 11 -40 -9 -14 -28 -2 -52 84 -166 42
-55 76 -103 76 -107 0 -5 7 -8 15 -8 8 0 15 4 15 8 0 4 16 14 35 21 32 11 48
31 25 31 -5 0 -10 5 -10 11 0 6 -29 55 -65 108 -36 54 -65 105 -65 114 0 28
12 47 29 47 15 -1 91 -107 99 -138 2 -8 13 -25 25 -39 12 -13 42 -54 67 -90
51 -75 69 -89 96 -79 17 7 15 9 -12 21 -17 7 -42 28 -55 46 -13 19 -27 36 -31
37 -4 2 -8 8 -8 14 0 5 -9 21 -20 35 -11 14 -20 34 -20 44 0 9 -13 32 -29 49
-48 53 -56 64 -74 103 -18 38 -43 48 -53 23z m42 -207 c41 -64 47 -101 20
-128 -13 -13 -16 -11 -25 11 -5 14 -15 29 -21 33 -18 11 -60 83 -60 104 0 17
23 40 41 41 3 0 23 -27 45 -61z"/>
<path d="M4472 7060 c-12 -16 -22 -32 -22 -35 0 -4 -11 -21 -25 -39 -14 -18
-25 -37 -25 -41 0 -5 -9 -18 -20 -30 -13 -14 -16 -25 -10 -35 7 -10 10 -11 10
-2 0 6 8 20 18 30 19 20 49 63 73 107 12 22 25 31 48 33 45 5 41 -18 -24 -117
-30 -46 -55 -88 -55 -93 0 -4 -4 -8 -8 -8 -4 0 -16 -15 -26 -32 -35 -61 -130
-203 -152 -228 -13 -14 -26 -38 -30 -55 l-7 -30 32 29 c17 17 31 34 31 39 0 4
33 56 73 113 39 58 78 117 85 132 29 58 85 131 95 125 5 -3 7 -1 3 5 -3 5 10
31 29 56 19 26 35 48 35 50 0 4 -96 56 -103 56 -2 0 -13 -13 -25 -30z"/>
<path d="M5580 7070 c-14 -11 -33 -20 -42 -20 -22 0 -23 -23 -3 -40 8 -7 29
-38 47 -69 18 -31 48 -76 67 -101 20 -25 58 -80 85 -123 27 -42 53 -77 57 -77
5 0 9 -6 9 -12 0 -7 21 -41 47 -76 38 -51 49 -60 58 -49 5 8 20 17 33 21 13 4
22 15 22 27 0 27 -25 24 -49 -7 -12 -15 -21 -22 -21 -16 0 6 -22 37 -50 70
-27 33 -50 63 -50 67 0 4 -28 48 -62 98 -123 182 -140 209 -154 243 -14 33
-13 34 11 40 27 7 55 -10 55 -32 0 -8 4 -14 9 -14 5 0 16 -16 25 -35 9 -19 21
-37 27 -41 6 -3 14 -17 19 -30 5 -13 16 -24 25 -24 22 0 18 37 -5 50 -11 6
-20 17 -20 25 0 8 -5 15 -11 15 -5 0 -16 15 -24 33 -8 19 -21 39 -29 47 -9 7
-16 18 -16 25 0 7 -7 16 -16 19 -19 7 -15 9 -44 -14z"/>
<path d="M4243 7032 c-18 -20 -33 -42 -33 -48 0 -6 19 -23 42 -38 41 -26 68
-28 68 -4 0 6 9 22 21 34 27 29 19 56 -23 74 -18 7 -35 15 -38 17 -3 1 -20
-14 -37 -35z m62 -22 c23 -25 13 -50 -20 -50 -27 0 -48 31 -27 38 7 2 12 10
12 18 0 20 14 17 35 -6z"/>
<path d="M5802 7044 l-42 -26 27 -49 c16 -27 33 -49 38 -49 6 0 25 14 43 31
35 32 36 48 4 97 -18 27 -17 27 -70 -4z m59 -20 c20 -54 -13 -83 -53 -47 -21
19 -24 43 -4 43 7 0 19 7 26 15 17 20 19 19 31 -11z"/>
<path d="M4153 6900 c-3 -11 -9 -20 -14 -20 -5 0 -9 -9 -9 -20 0 -10 -6 -23
-13 -27 -13 -9 -22 -20 -91 -124 -24 -37 -49 -70 -55 -73 -6 -4 -11 -14 -11
-22 0 -9 -7 -22 -15 -30 -17 -17 -20 -60 -5 -69 6 -4 10 6 10 24 0 19 8 36 23
48 13 10 26 29 30 43 3 14 22 43 42 64 19 21 35 45 35 52 0 8 5 14 10 14 6 0
10 7 10 16 0 9 13 21 30 27 25 9 29 16 27 42 -2 26 1 30 23 30 37 0 41 -41 6
-55 -20 -7 -26 -16 -26 -41 0 -17 -9 -42 -20 -56 -11 -14 -20 -32 -20 -39 0
-8 -5 -14 -10 -14 -6 0 -16 -12 -23 -27 -6 -16 -20 -34 -29 -41 -10 -7 -18
-21 -18 -30 -1 -26 -23 -50 -54 -58 -30 -7 -30 -27 0 -32 13 -2 29 10 49 37
17 22 33 41 38 41 4 0 7 9 7 20 0 11 5 20 10 20 6 0 10 6 10 13 0 7 7 23 16
35 l16 23 44 -25 c45 -25 45 -25 70 19 6 11 30 51 53 88 44 72 47 104 5 52
-13 -16 -24 -33 -24 -37 0 -15 -52 -83 -68 -89 -46 -16 -72 28 -32 53 11 7 20
16 20 21 0 19 41 97 51 97 6 0 9 6 6 13 -2 6 -15 12 -28 12 -17 0 -25 6 -27
23 -4 28 -42 30 -49 2z"/>
<path d="M5910 6900 c-8 -11 -20 -20 -27 -20 -7 0 -13 -4 -13 -9 0 -19 51
-122 70 -141 11 -11 20 -25 20 -31 0 -6 17 -32 38 -58 21 -25 48 -62 59 -81
12 -19 35 -47 50 -63 l29 -27 31 28 32 28 -20 43 c-10 24 -19 49 -19 56 0 7
-6 15 -14 18 -7 3 -34 36 -59 74 -25 37 -57 79 -71 92 -14 14 -26 34 -26 46 0
28 -27 65 -48 65 -10 0 -24 -9 -32 -20z m53 -32 c-2 -5 -3 -18 -3 -31 0 -18
-5 -23 -20 -22 -33 2 -44 19 -28 44 12 20 57 27 51 9z m54 -90 c35 -40 103
-147 103 -163 0 -8 4 -15 10 -15 13 0 42 -58 35 -70 -15 -24 -85 3 -85 32 0 5
-17 32 -38 61 -20 29 -44 64 -51 80 -8 15 -18 27 -23 27 -4 0 -8 16 -8 35 0
42 25 48 57 13z"/>
<path d="M5790 6816 c0 -15 67 -125 89 -149 24 -24 31 -27 54 -18 40 16 33 30
-13 25 -37 -5 -40 -3 -40 19 0 14 -7 30 -16 38 -8 7 -24 30 -35 51 -11 21 -24
38 -29 38 -6 0 -10 -2 -10 -4z"/>
<path d="M4169 6540 c32 -31 55 -33 44 -4 -5 15 -42 34 -65 34 -6 0 3 -14 21
-30z"/>
<path d="M5967 6470 c-14 -11 -30 -20 -36 -20 -6 0 -11 -9 -11 -20 0 -25 28
-27 37 -2 15 39 35 41 69 7 18 -18 40 -48 49 -66 10 -19 25 -43 35 -54 23 -25
83 -128 71 -121 -12 8 -34 -21 -26 -34 3 -5 2 -10 -4 -10 -14 0 -85 101 -110
158 -6 12 -15 22 -21 22 -5 0 -10 6 -10 14 0 8 -11 28 -25 43 l-24 28 -1 -32
c0 -19 7 -37 18 -45 10 -7 44 -52 75 -99 31 -48 64 -94 72 -103 19 -18 36 -21
33 -5 -2 6 14 20 36 32 31 16 36 22 24 31 -7 6 -24 31 -37 56 -12 25 -33 56
-45 70 -13 14 -35 45 -50 70 -44 75 -51 85 -61 92 -16 12 -31 9 -58 -12z"/>
<path d="M4068 6450 c-16 -15 -28 -34 -28 -42 0 -8 -11 -25 -24 -37 -13 -12
-32 -39 -42 -59 -11 -20 -26 -43 -36 -52 -9 -8 -19 -31 -22 -51 -6 -31 -3 -37
15 -42 11 -3 23 -15 26 -26 6 -24 43 -29 43 -6 0 9 4 21 10 28 27 33 110 149
110 153 0 2 16 29 36 59 35 53 36 55 20 80 -23 34 -71 32 -108 -5z m92 -18 c0
-4 -9 -18 -20 -32 -11 -14 -20 -29 -20 -34 0 -4 -10 -21 -22 -36 -13 -15 -41
-57 -63 -94 -35 -57 -44 -65 -67 -64 -16 1 -28 5 -28 9 0 18 33 82 65 123 19
25 35 53 35 61 0 8 9 20 20 27 11 7 20 20 20 28 0 28 20 39 51 28 16 -5 29
-13 29 -16z"/>
<path d="M3858 6460 c-15 -10 -48 -64 -48 -80 0 -5 11 -11 25 -14 13 -3 29
-15 35 -26 13 -24 55 -28 46 -4 -3 9 -6 18 -6 20 0 2 -8 4 -18 4 -10 0 -26 6
-36 13 -18 13 -17 15 8 40 27 27 42 36 31 18 -3 -5 1 -16 9 -23 8 -8 15 -22
17 -31 5 -23 26 -8 34 24 6 23 2 29 -35 48 -22 11 -42 21 -43 21 -1 0 -10 -5
-19 -10z"/>
<path d="M6223 6463 c-19 -7 -16 -26 7 -46 24 -20 26 -35 5 -43 -21 -8 -44 13
-38 35 6 23 -8 33 -27 21 -22 -14 27 -110 56 -110 12 0 24 6 27 14 3 8 19 17
36 21 36 8 45 45 11 45 -14 0 -22 10 -28 32 -8 32 -24 42 -49 31z m32 -23 c3
-5 1 -10 -4 -10 -6 0 -11 5 -11 10 0 6 2 10 4 10 3 0 8 -4 11 -10z"/>
<path d="M6315 6290 c-4 -11 -15 -20 -26 -20 -27 0 -19 -25 32 -107 22 -34 39
-65 39 -69 0 -3 8 -13 19 -22 10 -10 29 -37 42 -62 13 -24 41 -67 61 -95 21
-27 38 -55 38 -62 0 -6 4 -13 8 -15 12 -4 72 -95 72 -107 0 -6 5 -11 10 -11 6
0 16 -12 22 -27 7 -16 24 -42 38 -59 14 -17 49 -65 78 -107 50 -74 72 -93 72
-63 0 8 12 17 26 20 23 6 26 10 20 39 -8 40 -29 87 -38 87 -4 0 -15 15 -24 33
-18 36 -53 77 -65 77 -5 0 7 -27 26 -59 19 -33 35 -62 35 -66 0 -4 11 -20 25
-37 29 -35 30 -41 9 -63 -15 -15 -18 -14 -41 7 -29 27 -133 192 -133 210 1 21
26 48 44 48 20 0 21 26 2 37 -15 8 -66 78 -66 90 0 3 -18 30 -40 59 -22 29
-40 62 -40 73 0 10 -6 21 -14 24 -12 5 -76 91 -76 102 0 3 -16 27 -35 54 -19
26 -35 55 -35 64 0 9 -9 19 -20 22 -11 3 -20 11 -20 16 0 18 -39 9 -45 -11z
m56 -48 c42 -45 149 -208 149 -228 0 -7 3 -14 8 -16 17 -7 72 -84 72 -100 0
-10 4 -18 9 -18 16 0 54 -60 54 -86 0 -32 -7 -38 -37 -30 -24 6 -66 64 -66 92
0 8 -7 17 -15 20 -17 7 -65 86 -65 108 0 9 -6 16 -14 16 -16 0 -66 80 -66 104
0 9 -6 16 -14 16 -8 0 -31 30 -51 66 -30 53 -35 68 -24 75 22 14 32 10 60 -19z"/>
<path d="M3737 6282 c-10 -10 -17 -24 -17 -31 0 -8 -13 -28 -29 -47 -17 -18
-45 -61 -63 -94 -18 -33 -41 -63 -50 -66 -10 -3 -18 -14 -18 -24 0 -10 -25
-54 -56 -97 -31 -43 -61 -88 -67 -100 -6 -13 -16 -23 -24 -23 -26 0 -13 -37
17 -50 39 -16 45 -27 28 -48 -8 -9 -31 -46 -53 -82 -55 -93 -98 -140 -119
-128 -22 12 -20 30 5 62 22 28 89 150 89 162 0 15 -43 -33 -61 -68 -10 -20
-22 -38 -26 -40 -8 -3 -53 -89 -53 -100 0 -7 80 -62 83 -57 1 2 7 12 12 21 33
56 510 764 518 770 13 8 -8 29 -46 46 -38 16 -51 15 -70 -6z m61 -34 c7 -26 5
-38 -7 -53 -23 -27 -71 -103 -72 -112 0 -5 -15 -28 -34 -53 -61 -81 -165 -239
-165 -249 0 -15 -36 -32 -54 -25 -23 9 -28 35 -11 58 8 12 35 50 59 86 24 36
53 75 65 87 11 12 21 27 21 33 0 14 78 128 102 151 10 9 18 23 18 31 0 8 11
24 25 36 14 13 23 27 20 32 -3 6 1 10 9 10 9 0 19 -14 24 -32z"/>
<path d="M3822 6090 c-12 -16 -22 -33 -22 -37 0 -15 56 -73 70 -73 8 0 31 19
50 42 32 39 33 42 15 52 -10 6 -25 19 -34 29 -23 26 -54 21 -79 -13z m78 -23
c0 -18 -23 -67 -32 -67 -14 0 -40 50 -34 65 7 19 66 21 66 2z"/>
<path d="M6226 6095 c-11 -8 -30 -15 -43 -15 -28 0 -28 -3 -1 -43 49 -70 48
-69 70 -42 11 14 28 25 38 25 31 0 33 31 3 61 -32 32 -40 34 -67 14z m52 -37
c-2 -15 -11 -24 -27 -26 -15 -3 -21 0 -16 7 3 7 3 11 -2 10 -36 -6 -46 17 -10
24 51 10 58 8 55 -15z"/>
<path d="M5028 6066 c-16 -19 -28 -39 -28 -43 0 -4 -27 -44 -60 -87 -33 -44
-60 -84 -60 -90 0 -5 -9 -19 -20 -31 -11 -11 -23 -35 -26 -53 -6 -27 -3 -33
18 -41 14 -5 28 -17 31 -25 9 -23 37 -20 37 4 0 11 4 20 9 20 4 0 30 36 57 80
65 105 73 105 153 -6 33 -48 61 -93 61 -100 0 -8 9 -14 20 -14 13 0 20 7 20
20 0 11 6 20 13 20 7 0 22 6 32 14 18 13 16 17 -29 81 -26 38 -52 78 -57 89
-5 12 -25 41 -44 66 -19 25 -46 64 -61 88 -14 23 -29 42 -32 42 -4 0 -19 -16
-34 -34z m37 -14 c13 -9 77 -98 96 -133 8 -14 31 -51 52 -82 43 -65 49 -107
14 -107 -15 0 -31 13 -50 43 -33 50 -90 134 -110 162 -14 19 -15 18 -32 -15
-10 -19 -39 -68 -66 -108 -26 -40 -49 -78 -51 -84 -3 -8 -13 -8 -35 2 -29 13
-30 16 -17 34 8 11 14 28 14 38 0 10 9 23 20 30 11 7 20 18 20 24 0 6 9 19 20
29 11 10 20 26 20 37 0 10 18 36 40 58 22 22 40 49 40 60 0 21 8 25 25 12z"/>
<path d="M3702 5902 c-60 -79 -87 -142 -60 -142 7 0 19 -9 26 -20 7 -11 19
-20 27 -20 18 0 65 46 65 65 0 7 4 15 9 17 14 5 61 86 61 105 0 10 -15 30 -34
45 l-35 28 -59 -78z m98 3 c0 -12 -7 -28 -15 -35 -8 -7 -15 -20 -15 -29 0 -10
-11 -27 -25 -39 -14 -12 -25 -26 -25 -32 0 -12 -30 -13 -48 -1 -21 13 0 55 63
128 39 44 65 48 65 8z"/>
<path d="M6325 5967 c-50 -30 -47 -65 15 -156 28 -41 50 -78 50 -82 0 -14 46
-10 59 4 14 17 4 27 -25 27 -16 0 -34 17 -66 63 -59 83 -64 92 -50 83 7 -4 12
-2 12 3 0 6 13 11 29 11 24 0 34 -9 63 -57 19 -32 39 -70 46 -85 11 -27 32
-38 32 -18 0 29 -125 222 -142 219 -2 0 -12 -6 -23 -12z"/>
<path d="M5039 5768 c-8 -13 -21 -36 -29 -53 -8 -16 -29 -48 -46 -70 -17 -22
-65 -93 -108 -157 -42 -65 -81 -120 -86 -123 -19 -12 -10 -45 14 -55 13 -5 27
-14 31 -19 3 -6 19 -11 36 -11 21 0 29 5 29 18 1 9 14 35 30 57 17 22 36 54
44 70 8 17 31 47 50 69 20 21 36 45 36 52 0 32 37 10 72 -44 21 -31 58 -86 83
-122 24 -36 44 -73 45 -82 0 -24 65 -25 74 -2 9 23 8 24 -16 24 -36 1 -75 42
-122 130 -10 19 -21 37 -25 40 -4 3 -21 24 -39 47 -41 52 -40 86 1 91 23 3 30
-2 42 -32 9 -20 19 -36 23 -36 4 0 23 -26 42 -57 19 -32 38 -60 42 -63 17 -13
58 -83 58 -100 0 -23 18 -36 31 -23 10 10 -45 108 -113 200 -21 29 -38 57 -38
62 0 6 -10 22 -22 37 -13 14 -22 29 -22 32 1 4 -12 23 -30 43 -17 20 -40 51
-52 68 l-21 32 -14 -23z m44 -68 c5 -19 -15 -50 -33 -50 -8 0 -20 34 -20 58 0
21 47 14 53 -8z m-43 -95 c0 -11 -9 -26 -20 -33 -11 -7 -20 -17 -20 -23 0 -5
-19 -38 -42 -73 -24 -35 -55 -84 -70 -110 -21 -35 -33 -46 -53 -46 -21 0 -25
5 -25 29 0 15 9 39 19 52 24 31 57 85 75 125 8 17 22 36 30 44 9 7 16 18 16
25 0 8 12 23 26 34 21 17 29 18 45 8 10 -6 19 -21 19 -32z"/>
<path d="M3559 5691 c-6 -16 -17 -32 -25 -35 -23 -9 -17 -45 10 -56 13 -5 27
-14 31 -19 13 -22 42 -10 74 29 27 34 31 43 20 56 -7 9 -21 13 -31 11 -10 -3
-18 -1 -18 5 0 13 -26 38 -40 38 -6 0 -16 -13 -21 -29z m71 -40 c14 -27 13
-34 -5 -27 -8 3 -14 0 -12 -7 1 -6 -8 -13 -20 -15 -14 -2 -23 2 -23 10 0 7 -3
23 -6 36 -6 19 -3 22 24 22 21 0 35 -7 42 -19z"/>
<path d="M6500 5694 c-13 -13 -31 -24 -38 -24 -17 0 -12 -32 6 -38 6 -2 12 2
12 10 0 7 11 18 25 25 35 16 58 -7 45 -42 -8 -21 -7 -25 9 -25 10 0 24 7 31
15 11 13 9 19 -7 38 -11 12 -26 32 -32 45 -14 27 -20 27 -51 -4z"/>
<path d="M4755 5661 c-3 -11 -12 -22 -20 -25 -22 -8 -18 -29 9 -55 l24 -23 -5
42 -6 41 34 -3 c40 -4 46 -28 11 -43 -12 -6 -20 -16 -17 -23 3 -8 5 -18 5 -24
0 -5 10 -8 23 -6 15 2 23 11 25 28 2 13 10 29 18 35 11 8 8 16 -15 43 -33 37
-76 44 -86 13z"/>
<path d="M5288 5660 c-7 -11 -21 -20 -30 -20 -23 0 -23 -11 2 -43 11 -14 20
-30 20 -36 0 -6 9 -15 20 -21 16 -8 25 -5 50 20 17 16 35 30 40 30 17 0 11 26
-10 45 -11 10 -20 24 -20 32 0 21 -58 16 -72 -7z m63 -42 c10 -17 -10 -29 -36
-21 -20 6 -35 21 -35 36 0 13 62 0 71 -15z"/>
<path d="M6480 5613 c0 -18 27 -46 38 -39 14 9 16 36 3 36 -5 0 -16 3 -25 6
-9 3 -16 2 -16 -3z"/>
<path d="M3475 5552 c-14 -10 -75 -89 -75 -98 0 -9 -82 -131 -124 -184 -20
-25 -36 -53 -36 -62 0 -9 -3 -19 -8 -22 -19 -11 -71 -95 -63 -100 5 -4 29 21
52 54 23 33 46 60 50 60 5 0 9 6 9 13 0 7 8 22 18 33 9 11 25 36 36 56 10 20
29 47 42 59 13 12 24 33 24 45 0 14 8 25 20 29 11 3 20 15 20 26 0 10 4 19 9
19 5 0 11 9 14 20 5 20 45 42 60 33 15 -9 7 -72 -11 -85 -10 -7 -25 -25 -33
-40 -8 -15 -45 -74 -84 -130 -38 -57 -74 -111 -80 -120 -5 -9 -24 -36 -42 -61
-17 -25 -29 -48 -26 -51 8 -8 73 56 73 72 0 6 8 20 18 30 9 10 28 38 41 62 27
50 102 160 126 184 8 8 15 20 15 26 0 6 11 26 25 44 33 43 32 52 -7 76 -36 21
-47 24 -63 12z"/>
<path d="M6595 5549 c-5 -5 -18 -16 -29 -23 -18 -12 -18 -14 8 -60 14 -26 35
-59 45 -74 68 -100 159 -237 176 -265 36 -59 63 -92 71 -84 4 4 -1 17 -12 30
-11 12 -31 42 -44 67 -28 52 -107 167 -121 175 -5 4 -9 15 -9 26 0 10 -4 19
-9 19 -4 0 -25 27 -45 60 -27 44 -35 65 -30 85 11 44 39 30 87 -42 130 -200
157 -243 157 -252 0 -6 4 -11 10 -11 5 0 17 -15 26 -32 21 -41 60 -89 67 -82
3 3 -10 29 -29 57 -19 28 -34 55 -34 60 0 5 -15 27 -34 48 -18 22 -48 66 -65
97 -18 31 -49 81 -70 110 -73 101 -91 116 -116 91z"/>
<path d="M4644 5488 c-42 -58 -57 -80 -76 -118 -7 -14 -30 -43 -50 -65 -34
-35 -50 -75 -30 -75 12 0 28 14 35 30 4 8 16 29 27 45 11 17 26 42 35 57 8 15
27 39 41 53 14 14 22 29 19 35 -6 9 38 43 62 46 34 5 -7 -114 -47 -136 -11 -6
-20 -19 -20 -29 0 -10 -9 -30 -20 -44 -11 -14 -20 -30 -20 -36 0 -6 -5 -11
-10 -11 -6 0 -16 -12 -22 -26 -7 -14 -29 -45 -50 -67 -21 -23 -38 -49 -38 -58
0 -26 -72 -99 -98 -99 -28 0 -30 30 -2 48 11 7 20 23 20 37 0 14 9 30 20 37
11 7 20 21 20 31 0 10 7 20 15 23 14 6 22 34 9 34 -11 0 -64 -58 -64 -70 0 -7
-18 -34 -40 -60 -22 -26 -40 -52 -40 -57 0 -5 11 -20 25 -33 14 -13 25 -20 25
-15 0 5 5 4 12 -3 7 -7 18 -12 24 -12 20 0 73 62 80 93 3 16 12 31 20 34 8 3
14 11 14 19 0 8 9 19 20 26 11 7 20 18 20 25 0 7 5 13 11 13 5 0 7 4 4 10 -7
11 22 59 47 78 10 7 18 19 18 26 0 7 9 21 20 31 11 10 20 22 20 26 0 11 62
103 72 107 24 10 0 57 -43 86 l-27 17 -38 -53z"/>
<path d="M5387 5505 c-36 -28 -34 -49 13 -111 22 -29 40 -56 40 -59 0 -4 9
-18 20 -32 11 -14 20 -34 20 -44 0 -11 6 -19 14 -19 7 0 42 -45 77 -99 57 -88
74 -116 115 -184 8 -12 14 -15 18 -8 4 6 16 11 27 11 11 0 32 11 46 24 l26 24
-24 30 c-13 16 -40 55 -59 86 -19 32 -45 70 -57 84 -13 14 -23 31 -23 39 0 8
-12 27 -27 42 -16 15 -35 41 -43 57 -8 16 -22 40 -32 53 -10 13 -18 32 -18 42
0 10 -9 21 -21 24 -11 4 -24 17 -29 30 -12 31 -51 36 -83 10z m93 -77 c0 -9 9
-22 20 -28 11 -6 20 -17 20 -25 0 -8 4 -15 9 -15 5 0 25 -28 45 -62 20 -35 49
-81 65 -103 122 -164 140 -205 91 -205 -11 0 -20 -5 -20 -11 0 -8 -5 -8 -15 1
-8 7 -15 22 -15 33 0 12 -10 32 -23 46 -13 15 -43 58 -68 96 -24 39 -49 76
-56 83 -7 7 -13 20 -13 27 0 7 -12 26 -27 42 -16 16 -35 39 -43 52 -8 12 -24
33 -34 46 -25 32 -28 85 -3 85 9 0 17 5 17 12 0 7 11 -3 25 -22 14 -19 25 -42
25 -52z"/>
<path d="M5011 5423 c-17 -20 -38 -51 -46 -68 -9 -16 -50 -77 -90 -135 -41
-58 -100 -145 -131 -195 -31 -49 -63 -94 -70 -98 -8 -4 -14 -13 -14 -18 0 -6
-71 -117 -158 -247 -247 -370 -296 -441 -302 -437 -3 2 -12 -5 -19 -17 -8 -13
-9 -18 -1 -13 6 4 -5 -19 -26 -51 -21 -33 -60 -93 -86 -134 -27 -41 -51 -80
-56 -86 -22 -31 -32 -57 -32 -83 0 -29 9 -37 95 -86 71 -41 99 -58 170 -102
44 -27 105 -65 135 -83 30 -18 132 -80 225 -138 272 -167 447 -272 457 -272 5
0 45 21 89 48 44 26 98 56 119 68 22 11 37 24 33 27 -3 4 8 10 25 13 18 4 29
10 26 15 -3 5 2 6 10 3 9 -4 18 1 22 10 3 9 11 16 17 16 6 0 18 6 26 14 9 7
43 28 76 45 32 18 62 35 65 40 3 4 30 22 60 40 80 47 119 71 175 106 28 18 70
43 95 56 24 13 74 43 110 67 36 23 74 48 84 55 42 27 57 48 50 69 -10 31 -5
25 -391 602 -194 289 -353 530 -353 534 0 5 -9 17 -20 27 -11 10 -20 23 -21
29 0 6 -20 38 -45 71 -24 33 -53 76 -64 95 -55 94 -169 245 -188 248 -13 2
-30 -10 -51 -35z"/>
<path d="M3168 5415 c-6 -14 -15 -25 -20 -25 -14 0 -9 -26 10 -47 27 -31 61
-38 78 -16 43 54 48 64 34 73 -18 11 -30 3 -30 -20 0 -25 -15 -33 -46 -26 -33
9 -30 32 6 48 37 16 39 38 5 38 -17 0 -29 -8 -37 -25z"/>
<path d="M6884 5425 c-4 -8 -13 -15 -20 -15 -27 0 -26 -29 1 -65 31 -40 54
-40 94 2 17 18 20 28 12 36 -6 6 -11 21 -11 34 0 20 -5 23 -35 23 -22 0 -38
-6 -41 -15z m62 -36 c3 -6 0 -18 -9 -26 -19 -20 -57 -8 -57 18 0 14 7 19 29
19 17 0 33 -5 37 -11z"/>
<path d="M3064 5262 c-17 -20 -39 -50 -50 -67 -10 -16 -26 -37 -36 -46 -10 -9
-18 -23 -18 -30 0 -8 -16 -37 -35 -64 -97 -138 -102 -154 -59 -174 26 -11 26
-11 20 16 -4 15 -8 35 -9 43 -2 17 31 25 52 11 11 -7 11 -12 -2 -32 -20 -32
-30 -69 -19 -69 15 0 52 37 52 52 0 8 17 37 38 65 47 65 58 81 82 121 11 17
24 32 30 32 5 0 10 6 10 13 0 7 8 22 18 33 21 22 34 74 24 91 -4 5 -17 13 -29
17 -13 4 -23 12 -23 17 0 18 -15 8 -46 -29z m65 -8 c18 -16 17 -18 -15 -67
-19 -29 -34 -56 -34 -63 0 -6 -10 -20 -23 -32 -13 -12 -34 -43 -46 -68 -28
-55 -46 -64 -73 -36 l-21 20 24 34 c13 18 31 40 41 49 10 9 25 32 33 52 8 20
26 47 40 61 14 14 25 31 25 39 0 30 21 35 49 11z"/>
<path d="M6983 5283 c-20 -10 -33 -24 -33 -36 0 -20 47 -114 66 -132 25 -24
73 -93 87 -125 8 -19 37 -60 65 -90 42 -44 52 -51 58 -37 3 9 17 17 30 17 21
0 24 5 24 34 0 26 -5 36 -20 41 -11 3 -20 13 -20 21 0 8 -9 23 -20 34 -11 11
-20 31 -20 44 0 13 -6 26 -13 29 -7 2 -38 42 -70 88 -58 85 -92 130 -99 128
-1 0 -18 -8 -35 -16z m102 -102 c36 -55 68 -108 72 -118 3 -10 12 -25 19 -33
7 -8 14 -26 16 -39 1 -13 12 -29 23 -35 11 -6 22 -12 24 -13 2 -1 -2 -16 -9
-33 l-13 -31 -18 28 c-11 15 -19 24 -19 19 0 -5 -3 -6 -7 -3 -3 4 2 14 13 22
15 11 16 15 4 15 -33 1 -82 60 -196 233 -24 36 -24 38 -7 62 10 13 21 25 25
25 4 0 37 -45 73 -99z"/>
<path d="M4708 5255 c-6 -14 -15 -25 -21 -25 -5 0 -7 -7 -3 -15 3 -8 1 -15 -5
-15 -15 0 -6 -35 9 -36 6 -1 16 -2 21 -3 5 0 11 -10 14 -21 6 -25 37 -27 37
-2 0 9 12 28 25 41 14 13 25 28 25 35 0 17 -21 36 -41 36 -9 0 -19 7 -23 15
-8 22 -25 18 -38 -10z m50 -47 c6 -25 5 -34 -5 -36 -37 -9 -58 29 -31 56 19
19 27 14 36 -20z"/>
<path d="M5360 5254 c-8 -19 -16 -25 -30 -21 -11 3 -23 1 -26 -4 -3 -5 0 -9 5
-9 6 0 11 -5 11 -12 0 -19 44 -78 58 -78 18 0 15 14 -8 28 -11 7 -20 21 -20
33 0 11 4 17 10 14 6 -3 7 1 4 9 -5 12 0 16 19 16 19 0 26 -6 30 -27 3 -16 0
-31 -6 -35 -8 -5 -4 -8 9 -8 41 0 44 20 11 71 -36 55 -53 60 -67 23z"/>
<path d="M4600 5101 c0 -26 15 -34 40 -21 53 28 20 -76 -45 -143 -19 -20 -35
-42 -35 -48 0 -7 -10 -28 -22 -46 -25 -36 -57 -43 -78 -18 -7 8 -20 15 -29 15
-18 0 -71 -71 -71 -94 0 -7 -9 -21 -20 -31 -11 -10 -20 -22 -20 -28 0 -5 -9
-21 -19 -36 -11 -15 -23 -39 -26 -54 -6 -23 -4 -27 15 -27 13 0 24 -8 27 -20
3 -11 10 -20 17 -20 18 1 50 32 63 63 7 15 17 27 22 27 5 0 19 21 31 46 12 25
32 57 44 72 12 15 33 45 46 67 13 22 30 45 37 50 8 6 19 20 26 32 50 90 80
135 97 145 23 14 27 48 7 48 -8 0 -24 9 -37 20 -30 26 -70 27 -70 1z m-130
-326 c12 -23 10 -28 -28 -74 -23 -27 -42 -56 -42 -63 0 -22 -57 -71 -74 -65
-9 4 -16 12 -16 19 1 28 48 119 68 134 12 8 22 23 22 33 0 43 49 55 70 16z"/>
<path d="M5457 5108 c-22 -17 -9 -33 28 -33 23 0 31 -5 33 -22 2 -13 11 -28
20 -35 10 -7 35 -39 56 -70 22 -32 43 -58 48 -58 13 0 10 6 -37 77 -25 37 -45
72 -45 78 0 7 -9 20 -20 30 -11 10 -20 24 -20 32 0 16 -41 17 -63 1z"/>
<path d="M5400 5070 c0 -5 8 -17 18 -27 25 -24 62 -87 62 -104 0 -8 9 -20 20
-27 11 -7 20 -17 20 -22 0 -6 18 -33 40 -61 22 -28 40 -58 40 -67 0 -10 9 -23
20 -30 11 -7 20 -18 20 -24 0 -7 11 -23 24 -37 32 -35 96 -128 96 -141 0 -19
32 -10 37 10 3 11 9 21 14 21 5 1 13 2 18 3 5 0 12 4 16 8 8 7 -51 134 -66
144 -5 3 -28 32 -50 66 -23 33 -44 56 -48 50 -3 -5 -21 -13 -39 -17 -40 -8
-67 12 -77 55 -3 15 -15 36 -26 46 -10 9 -19 22 -19 28 0 6 -9 17 -20 24 -11
6 -26 27 -33 45 -21 49 -67 88 -67 57z m327 -321 c17 -24 32 -49 32 -55 1 -6
8 -18 17 -25 16 -13 23 -28 39 -77 6 -22 4 -23 -26 -20 -28 3 -40 14 -90 88
-62 91 -69 113 -41 129 24 15 32 10 69 -40z"/>
<path d="M4560 5040 c-7 -16 -17 -30 -22 -30 -5 0 -12 -8 -15 -17 -4 -10 -17
-33 -30 -52 -26 -39 -29 -51 -9 -51 7 0 19 13 26 29 6 16 18 32 26 35 8 3 14
14 14 24 0 10 14 31 30 47 35 33 38 45 11 45 -11 0 -23 -12 -31 -30z"/>
<path d="M6960 5029 c0 -5 -13 -15 -30 -20 -34 -12 -36 -23 -12 -59 9 -14 28
-43 41 -65 36 -57 36 -28 0 40 -24 46 -28 60 -17 66 31 20 53 9 82 -44 16 -28
38 -62 48 -74 20 -21 20 -22 -1 -35 -30 -19 -26 -28 14 -28 19 0 35 -5 35 -10
0 -6 11 -20 25 -32 14 -12 25 -26 25 -31 0 -16 54 -100 58 -89 5 17 -102 201
-127 216 -8 5 -67 102 -96 157 -10 20 -45 27 -45 8z"/>
<path d="M3108 5003 c-28 -31 -188 -271 -188 -283 0 -4 -9 -15 -20 -25 -20
-18 -28 -55 -12 -55 13 0 32 23 32 37 0 7 17 38 37 69 30 46 41 54 62 52 33
-4 39 -33 13 -61 -12 -12 -25 -33 -31 -47 -6 -14 -27 -45 -45 -70 -19 -25 -35
-49 -35 -54 -1 -5 -16 -28 -35 -51 -33 -40 -63 -85 -88 -132 -9 -19 -8 -26 7
-43 10 -11 24 -20 31 -20 11 0 133 -75 160 -99 6 -5 39 -23 72 -40 34 -17 64
-37 69 -44 9 -16 47 -27 59 -18 16 11 34 50 34 74 0 15 -11 29 -32 42 -83 52
-107 66 -166 100 -35 20 -66 43 -69 51 -3 8 -16 14 -29 14 -23 0 -54 33 -54
57 0 16 79 135 97 146 7 4 20 24 28 43 8 18 19 34 24 34 6 0 11 7 11 15 0 9
12 33 26 55 25 38 26 39 7 64 -10 14 -21 26 -25 26 -31 1 57 146 100 165 27
12 29 25 4 25 -10 0 -30 -12 -44 -27z m-202 -621 c11 -10 31 -22 44 -25 14 -4
76 -40 138 -81 105 -69 112 -75 96 -90 -15 -16 -15 -18 1 -30 13 -9 15 -15 7
-20 -7 -4 -12 -3 -12 3 0 5 -26 23 -57 39 -32 16 -85 47 -118 69 -33 22 -80
50 -105 63 -51 26 -60 36 -60 68 0 28 37 30 66 4z"/>
<path d="M3165 5000 c-4 -6 -1 -18 6 -26 10 -12 8 -20 -8 -42 -31 -42 -44 -70
-34 -76 4 -3 27 24 50 60 34 52 40 68 30 80 -14 16 -35 18 -44 4z"/>
<path d="M4256 4907 c-26 -34 -34 -67 -17 -67 5 0 16 -7 24 -15 17 -17 67 -31
67 -19 0 17 -15 32 -35 35 -24 5 -31 34 -14 55 11 14 13 14 21 -1 5 -8 13 -13
18 -10 5 3 7 -3 5 -13 -2 -10 0 -25 5 -32 9 -15 30 -5 30 15 0 7 6 16 13 18 8
4 8 6 1 6 -7 1 -26 15 -44 31 -18 17 -36 30 -41 30 -4 0 -19 -15 -33 -33z"/>
<path d="M5784 4906 l-38 -34 25 -36 c13 -20 31 -36 39 -36 26 0 85 55 75 70
-6 10 -13 7 -30 -14 -24 -30 -55 -27 -55 6 0 17 5 20 30 16 37 -6 48 18 21 44
-11 10 -22 18 -25 18 -3 0 -22 -15 -42 -34z"/>
<path d="M7298 4843 c-29 -7 -21 -32 15 -47 17 -7 43 -26 57 -42 36 -41 110
-162 110 -180 0 -8 5 -14 10 -14 9 0 126 -167 155 -222 5 -10 13 -18 17 -18
15 0 8 21 -16 53 -13 18 -35 51 -48 74 -13 22 -56 89 -95 148 -40 59 -73 109
-73 112 0 3 -15 26 -32 52 -18 25 -38 55 -44 66 -12 21 -27 26 -56 18z"/>
<path d="M2760 4804 c-14 -19 -49 -65 -78 -101 -29 -37 -60 -82 -69 -102 -13
-29 -99 -162 -157 -245 -6 -9 -4 -26 7 -49 9 -19 17 -49 17 -65 0 -16 11 -50
25 -73 14 -24 25 -57 25 -74 0 -42 31 -100 53 -99 9 0 33 1 52 2 40 2 44 16
20 62 -9 16 -17 43 -19 58 -4 34 -13 52 -27 52 -15 0 -10 -34 12 -79 19 -39
19 -45 5 -59 -13 -14 -19 -14 -41 -2 -14 8 -28 25 -31 39 -3 14 -12 48 -20 75
-7 26 -14 64 -14 82 0 19 -4 34 -8 34 -12 0 -32 46 -32 74 0 28 123 215 180
271 11 12 20 26 20 33 0 16 62 111 97 149 22 24 36 30 52 26 17 -4 21 -11 17
-27 -3 -11 -6 -25 -6 -30 0 -4 -13 -6 -30 -4 -16 3 -30 1 -30 -4 0 -4 5 -8 10
-8 15 0 12 -36 -5 -50 -8 -6 -17 -22 -21 -33 -3 -12 -21 -40 -38 -62 -42 -53
-89 -135 -82 -142 3 -4 7 -4 9 -2 5 5 59 87 83 123 10 16 27 41 36 55 10 14
23 37 30 51 7 14 25 40 40 58 34 40 35 58 6 83 -34 28 -60 23 -88 -17z"/>
<path d="M7240 4804 c0 -17 39 -96 51 -104 12 -8 100 -142 110 -167 5 -13 13
-23 18 -23 5 0 14 -13 21 -30 7 -16 19 -30 26 -30 19 0 17 13 -6 43 -11 14
-20 34 -20 45 0 11 -6 22 -14 25 -13 5 -76 91 -76 104 0 4 -7 15 -16 25 -14
14 -14 20 -4 33 15 17 35 21 24 3 -4 -7 -3 -8 4 -4 9 5 8 12 0 26 -14 22 -38
34 -38 20 0 -22 -40 -9 -46 14 -7 28 -34 44 -34 20z"/>
<path d="M7020 4803 c0 -12 71 -128 105 -173 19 -25 39 -55 44 -67 6 -11 15
-24 20 -28 6 -3 11 -17 11 -31 0 -13 6 -24 13 -24 6 0 18 -4 26 -9 12 -8 12
-12 -2 -26 -10 -9 -17 -23 -17 -31 0 -9 -11 -14 -30 -14 -20 0 -30 -5 -30 -15
0 -19 17 -19 50 0 36 21 59 18 69 -7 7 -18 4 -25 -9 -30 -10 -4 -21 -11 -25
-17 -3 -6 -15 -11 -25 -11 -10 0 -21 -8 -24 -18 -4 -10 -22 -24 -41 -31 -19
-7 -35 -17 -35 -22 0 -5 -8 -9 -19 -9 -10 0 -29 -11 -42 -24 -13 -13 -34 -26
-46 -30 -13 -4 -23 -12 -23 -17 0 -17 -61 -2 -75 18 -12 15 -11 18 3 22 9 1
24 9 32 16 27 24 90 55 110 55 13 0 20 7 20 20 0 13 7 20 20 20 10 0 24 9 30
20 9 17 8 20 -12 20 -13 0 -31 -9 -41 -20 -9 -11 -23 -20 -31 -20 -8 0 -16 -4
-18 -9 -4 -10 -83 -61 -120 -78 -30 -13 -33 -50 -4 -78 9 -9 16 -21 16 -26 0
-17 54 -9 75 12 23 23 151 106 178 115 9 3 17 10 17 15 0 5 11 9 24 9 15 0 27
7 31 18 3 11 23 25 46 32 35 12 39 17 34 37 -3 13 -28 56 -56 96 -27 39 -58
83 -67 97 -9 14 -31 44 -49 68 -18 24 -33 49 -33 56 0 7 -11 22 -25 34 -21 19
-30 38 -27 63 1 3 -10 11 -23 17 -14 7 -25 9 -25 5z"/>
<path d="M5906 4769 c-11 -10 -27 -19 -37 -19 -28 0 -32 -17 -9 -40 11 -11 20
-26 20 -34 0 -7 7 -20 16 -27 9 -7 20 -22 25 -34 20 -44 172 -265 182 -265 14
0 97 51 97 60 0 5 -8 15 -18 22 -15 11 -45 55 -98 149 -6 10 -17 27 -25 36 -8
10 -21 30 -28 45 -14 28 -89 122 -99 125 -4 1 -16 -7 -26 -18z m74 -81 c11
-14 20 -30 20 -36 0 -5 9 -17 19 -26 18 -16 18 -19 3 -37 -9 -10 -22 -19 -28
-19 -11 0 -41 40 -69 92 -5 10 -13 18 -17 18 -4 0 -12 9 -18 20 -8 15 -6 23
12 40 l23 21 17 -23 c9 -13 26 -35 38 -50z m102 -146 c26 -30 78 -122 78 -137
0 -8 -9 -15 -19 -15 -11 0 -21 -5 -23 -12 -2 -6 -10 -8 -17 -4 -15 10 -81 143
-81 165 0 23 44 25 62 3z"/>
<path d="M4159 4767 c-9 -7 -20 -23 -24 -37 -4 -14 -17 -37 -29 -52 -11 -15
-31 -40 -43 -56 -12 -15 -31 -46 -43 -69 -11 -22 -30 -49 -40 -58 -11 -10 -20
-24 -20 -31 0 -7 -9 -18 -20 -24 -31 -17 -24 -37 23 -65 52 -30 65 -31 74 -7
9 26 129 206 147 221 9 7 16 20 16 27 0 8 16 34 35 60 19 25 35 50 35 55 0 12
-61 49 -80 49 -8 -1 -22 -6 -31 -13z m59 -75 c-12 -20 -29 -44 -39 -52 -10 -8
-20 -26 -22 -40 -3 -18 -10 -25 -27 -25 -37 0 -47 28 -25 69 11 20 23 36 27
36 3 0 10 9 13 20 3 11 11 20 16 20 6 0 17 7 25 15 11 11 20 12 34 5 19 -10
19 -11 -2 -48z m-132 -147 c4 -8 10 -12 15 -9 5 3 9 0 9 -5 0 -6 -3 -11 -8
-11 -4 0 -18 -23 -31 -51 -25 -51 -69 -86 -97 -75 -23 9 -16 34 26 90 22 29
40 58 40 64 0 17 40 15 46 -3z"/>
<path d="M2804 4552 c-22 -26 -50 -69 -64 -95 -34 -66 -98 -103 -126 -74 -4 4
-11 7 -15 7 -12 0 -39 -55 -39 -79 0 -25 37 -63 75 -76 21 -7 37 -24 52 -58
13 -26 25 -47 27 -47 3 0 5 22 4 49 0 30 7 59 17 75 10 15 14 30 10 34 -4 4
-10 1 -12 -6 -3 -7 -17 -19 -33 -27 -25 -13 -30 -13 -53 5 -14 11 -29 20 -34
20 -14 0 -36 46 -29 59 10 16 32 14 51 -5 27 -28 59 -10 90 50 16 31 39 66 51
79 12 13 25 33 28 45 4 12 18 35 32 51 13 16 21 32 16 35 -5 3 -27 -16 -48
-42z"/>
<path d="M7271 4589 c2 -8 40 -70 84 -137 80 -122 98 -137 127 -108 12 11 17
11 33 0 15 -12 17 -19 9 -42 -6 -16 -16 -26 -26 -24 -9 1 -18 -4 -22 -13 -8
-21 -49 -19 -80 6 -30 23 -36 8 -11 -28 22 -31 21 -61 -4 -123 -11 -30 -21
-65 -21 -76 0 -12 -7 -46 -16 -75 -9 -30 -25 -85 -36 -124 -12 -38 -25 -80
-29 -93 -5 -13 -9 -32 -9 -42 0 -10 -6 -23 -13 -27 -15 -9 -32 -103 -19 -103
12 0 42 67 42 93 0 13 9 50 19 83 11 32 27 86 36 119 9 33 28 92 41 132 13 39
21 78 18 86 -3 8 -1 18 5 22 6 3 11 14 11 24 0 17 77 106 91 106 3 0 13 8 23
18 10 9 22 17 27 17 18 0 9 73 -12 96 l-21 22 -34 -19 c-19 -10 -36 -19 -38
-19 -3 0 -15 17 -27 38 -21 34 -59 84 -93 122 -7 8 -16 25 -20 37 -8 26 -41
56 -35 32z"/>
<path d="M4186 4490 l-28 -31 27 -39 c27 -39 53 -55 42 -26 -4 10 -1 13 8 10
8 -3 11 -12 8 -20 -3 -8 1 -14 10 -14 10 0 17 11 19 33 2 24 8 33 26 35 14 2
22 10 22 22 0 11 -10 22 -22 26 -13 4 -25 10 -28 15 -3 4 -16 10 -30 14 -19 4
-31 -1 -54 -25z m84 -30 c0 -14 -6 -19 -22 -19 -13 1 -31 -2 -40 -6 -19 -7
-22 2 -12 29 4 10 18 16 40 16 27 0 34 -4 34 -20z"/>
<path d="M5850 4500 c-6 -11 -17 -20 -25 -20 -21 0 -19 -16 7 -53 13 -18 24
-34 25 -35 3 -7 74 22 83 34 6 7 4 26 -7 52 -13 35 -20 42 -44 42 -18 0 -32
-7 -39 -20z m70 -45 c0 -31 -43 -46 -67 -22 -24 24 -9 47 32 47 31 0 35 -3 35
-25z"/>
<path d="M4112 4373 c-7 -3 -21 -24 -32 -49 -33 -72 -42 -72 -168 -3 -28 15
-51 4 -63 -29 -9 -25 8 -30 41 -12 24 13 70 -4 70 -25 0 -8 9 -15 19 -15 26 0
32 -22 15 -51 -7 -13 -17 -32 -20 -42 -4 -9 -17 -20 -30 -23 -17 -4 -24 -13
-24 -29 0 -12 -7 -28 -15 -35 -7 -6 -27 -35 -43 -64 -17 -28 -37 -58 -46 -65
-9 -7 -16 -21 -16 -31 0 -10 -9 -20 -20 -23 -13 -3 -20 -14 -20 -31 0 -15 -8
-30 -20 -36 -28 -15 -25 -39 5 -50 14 -5 56 -29 93 -53 37 -24 79 -50 94 -58
15 -8 62 -35 103 -61 67 -42 78 -46 100 -36 16 7 25 19 25 34 0 13 5 26 10 29
14 9 12 25 -3 25 -8 0 -22 9 -32 20 -10 11 -26 20 -36 20 -10 0 -22 6 -26 13
-4 7 -19 18 -33 25 -49 25 -85 47 -95 59 -12 15 -87 54 -93 49 -7 -7 41 -66
54 -66 16 0 152 -77 187 -106 16 -13 35 -24 43 -24 22 0 17 -16 -12 -35 -25
-16 -27 -16 -62 8 -66 43 -97 62 -122 74 -14 7 -43 24 -65 38 -22 14 -47 28
-55 31 -67 25 -71 43 -22 102 23 27 42 57 42 66 0 9 4 16 9 16 5 0 16 15 25
34 8 18 22 39 31 46 8 7 15 18 15 26 0 7 8 19 18 26 23 17 52 63 52 83 0 8 9
15 19 15 31 0 38 -53 12 -86 -12 -15 -21 -32 -21 -39 0 -6 -9 -20 -20 -30 -11
-10 -20 -24 -20 -32 0 -7 -4 -13 -9 -13 -13 0 -42 -60 -35 -71 3 -5 33 32 67
84 62 92 77 112 109 145 9 9 18 31 20 47 2 22 9 31 24 33 15 2 24 13 28 33 4
20 10 28 17 23 7 -4 9 -3 6 3 -3 5 2 22 12 38 17 29 17 29 -13 50 -39 26 -58
33 -74 28z m54 -80 c-8 -16 -22 -35 -30 -42 -9 -8 -16 -19 -16 -25 -1 -17 -47
-66 -64 -66 -9 0 -16 12 -18 33 -2 25 4 39 30 66 17 19 32 40 32 47 0 10 64
25 78 17 2 0 -3 -14 -12 -30z"/>
<path d="M5945 4345 c-14 -13 -25 -31 -25 -39 0 -8 27 -54 60 -101 33 -47 60
-89 60 -94 0 -4 18 -32 40 -61 22 -29 40 -61 40 -71 0 -9 9 -19 20 -22 11 -3
25 -19 31 -36 6 -17 17 -31 25 -31 20 0 18 8 -11 46 -14 18 -25 37 -25 43 0 5
-10 21 -22 34 -42 45 -63 73 -76 102 -7 16 -26 45 -42 65 -46 58 -81 131 -70
145 20 24 50 8 90 -49 41 -59 48 -83 30 -117 -6 -11 -8 -24 -5 -30 10 -15 37
11 30 28 -3 9 0 13 7 10 7 -2 12 -11 12 -20 -1 -9 1 -15 5 -13 11 7 27 -7 42
-36 8 -14 30 -50 50 -80 49 -73 99 -157 99 -166 0 -5 10 -19 22 -31 24 -27 17
-49 -20 -66 -12 -5 -22 -15 -22 -22 0 -16 16 -17 25 -3 4 6 11 8 16 5 5 -4 12
1 15 9 3 9 17 16 30 16 33 0 32 34 -1 56 -14 9 -22 20 -19 25 3 5 -6 19 -19
31 -13 13 -30 34 -37 48 -7 14 -25 41 -40 60 -15 19 -40 59 -55 88 -16 30 -34
56 -41 59 -6 2 -15 12 -18 21 -3 9 -11 26 -18 37 -7 11 -31 47 -52 80 -72 112
-89 122 -131 80z m40 5 c3 -5 1 -10 -4 -10 -6 0 -11 5 -11 10 0 6 2 10 4 10 3
0 8 -4 11 -10z"/>
<path d="M6170 4305 c-67 -46 -75 -53 -68 -60 4 -5 25 4 47 19 32 23 45 26 76
20 25 -4 39 -14 45 -29 5 -13 27 -47 49 -76 23 -30 41 -64 41 -76 0 -15 6 -23
18 -23 9 0 23 -4 30 -9 11 -7 11 -11 0 -22 -7 -8 -18 -23 -24 -34 -15 -26 -34
-30 -34 -7 0 11 -7 25 -15 32 -8 7 -15 18 -15 25 0 6 -9 20 -20 30 -11 10 -20
24 -20 30 0 7 -7 19 -16 26 -9 7 -20 23 -25 36 -9 25 -39 32 -39 10 0 -8 9
-22 20 -32 11 -10 20 -23 20 -30 0 -7 9 -20 20 -30 11 -10 20 -25 20 -33 0 -9
7 -22 15 -31 8 -9 25 -28 39 -44 22 -26 56 -29 56 -6 0 5 6 9 13 9 8 0 22 9
32 20 10 11 13 20 8 20 -6 0 -13 10 -17 23 -3 12 -21 40 -40 62 -19 22 -45 59
-56 83 -12 24 -30 48 -40 54 -10 6 -16 17 -13 24 5 14 -34 44 -57 43 -8 0 -31
-11 -50 -24z"/>
<path d="M7626 4311 c-4 -5 -11 -29 -16 -53 -22 -105 -32 -138 -42 -138 -5 0
-8 -12 -7 -27 6 -63 -31 -95 -67 -59 -16 16 -19 36 -5 36 5 0 11 12 14 28 3
15 8 37 12 50 6 16 3 22 -8 22 -11 0 -18 -13 -23 -37 -4 -21 -15 -56 -25 -77
-26 -54 -24 -58 15 -55 19 2 38 0 42 -4 18 -17 36 -3 59 45 14 28 25 62 25 76
0 13 4 31 10 41 5 10 14 49 20 86 10 65 9 88 -4 66z"/>
<path d="M3803 4226 c-18 -18 -33 -37 -33 -42 0 -6 -20 -37 -45 -68 -25 -32
-45 -66 -45 -76 0 -9 18 -29 39 -44 38 -27 40 -27 60 -9 12 9 21 25 21 35 0
10 4 18 9 18 5 0 12 8 16 19 3 10 16 30 28 43 47 53 69 90 59 100 -12 12 -32
2 -32 -16 0 -8 -7 -19 -15 -26 -8 -7 -15 -20 -15 -30 0 -10 -7 -21 -15 -24 -9
-3 -20 -18 -26 -34 -5 -15 -19 -32 -32 -37 -14 -7 -21 -17 -19 -29 3 -18 2
-18 -13 -2 -9 9 -23 16 -32 16 -8 0 -12 5 -9 13 3 6 9 20 12 30 4 9 15 17 25
17 14 0 19 7 19 26 0 15 19 53 46 90 49 69 48 81 -3 30z"/>
<path d="M2796 4210 c-8 -16 -11 -30 -6 -30 4 0 10 7 14 15 8 21 33 19 67 -6
17 -11 55 -35 87 -51 31 -17 74 -42 96 -57 21 -14 55 -34 75 -44 36 -19 67
-38 149 -92 34 -22 42 -34 42 -57 0 -28 -2 -30 -27 -23 -16 3 -44 17 -64 31
-19 13 -40 24 -46 24 -6 0 -16 6 -22 14 -7 8 -36 27 -64 42 -29 15 -77 43
-107 64 -30 20 -62 40 -70 43 -8 4 -25 14 -36 22 -19 14 -22 14 -27 1 -4 -9
-3 -15 1 -14 7 2 45 -21 181 -109 79 -51 166 -102 217 -126 17 -8 35 -20 39
-27 9 -15 64 47 65 73 0 10 7 20 15 23 8 4 15 12 15 20 0 17 -31 19 -47 3 -12
-12 -30 -4 -143 71 -41 27 -88 57 -105 65 -35 18 -50 27 -127 77 -64 42 -132
78 -147 78 -5 0 -16 -13 -25 -30z"/>
<path d="M7243 4221 c-17 -10 -44 -26 -60 -36 -15 -11 -34 -20 -42 -21 -7 -2
-25 -13 -40 -27 -14 -13 -34 -27 -43 -30 -10 -4 -18 -11 -18 -17 0 -5 -8 -10
-18 -10 -10 0 -25 -9 -35 -20 -17 -20 -16 -20 10 -14 16 4 33 12 38 19 6 6 27
17 48 24 20 7 37 17 37 22 0 5 8 9 18 9 9 0 26 11 36 25 10 14 27 25 37 25 10
0 22 6 26 14 4 8 20 17 35 21 21 5 29 2 38 -14 11 -21 30 -29 30 -12 0 5 -7
16 -15 25 -8 8 -15 19 -15 25 0 16 -31 12 -67 -8z"/>
<path d="M3287 4153 c-16 -15 -5 -30 30 -39 37 -9 58 -34 28 -34 -9 0 -13 -4
-10 -10 7 -12 -24 -13 -42 -2 -6 4 -11 16 -10 27 1 12 -4 20 -13 20 -28 0 -17
-45 15 -63 17 -9 34 -23 38 -29 12 -20 27 -15 27 7 0 11 5 20 10 20 6 0 16 11
22 25 10 22 8 28 -20 55 -30 28 -61 38 -75 23z"/>
<path d="M6766 4143 c-12 -30 11 -37 46 -13 18 12 25 19 16 16 -10 -3 -18 -1
-18 4 0 17 -38 11 -44 -7z"/>
<path d="M2725 4080 c4 -25 15 -70 25 -100 10 -30 28 -91 40 -135 51 -184 79
-265 91 -265 12 0 11 17 -1 25 -5 3 -10 15 -10 26 0 11 -9 48 -19 82 -33 103
-57 187 -86 292 -30 109 -52 150 -40 75z"/>
<path d="M2820 4105 c-10 -12 -10 -21 -2 -38 24 -51 49 -140 59 -212 3 -22 11
-47 18 -55 14 -17 29 -68 26 -91 -2 -20 51 -117 57 -101 2 6 -1 20 -7 31 -6
11 -11 31 -11 46 0 14 -7 36 -15 49 -9 13 -18 47 -22 75 -3 28 -9 51 -14 51
-4 0 -15 26 -23 58 -9 31 -23 78 -32 105 -9 26 -13 58 -10 72 7 28 -5 33 -24
10z"/>
<path d="M6725 4109 c-4 -6 -4 -14 1 -18 5 -3 18 -23 29 -43 20 -39 35 -49 35
-23 0 8 9 15 20 15 11 0 20 5 20 10 0 17 -31 24 -40 9 -11 -16 -14 -13 -27 25
-10 33 -27 44 -38 25z"/>
<path d="M6837 4113 c-8 -14 -1 -57 10 -60 19 -7 27 38 10 54 -8 8 -17 11 -20
6z"/>
<path d="M7225 4100 c-10 -11 -26 -20 -36 -20 -11 0 -24 -9 -31 -20 -7 -11
-22 -20 -34 -20 -26 0 -51 -27 -38 -40 7 -7 22 -1 44 15 19 14 41 25 51 25 9
0 19 9 22 20 4 15 14 20 40 20 20 0 39 -4 42 -10 3 -5 2 -10 -2 -10 -14 0 -43
-73 -43 -108 0 -17 -4 -33 -9 -36 -5 -4 -14 -30 -20 -59 -15 -69 -39 -153 -58
-199 -8 -20 -13 -42 -10 -50 3 -8 9 -1 16 17 6 17 14 37 18 45 9 21 43 137 52
180 10 45 32 90 43 90 4 0 8 20 8 45 0 25 5 54 12 64 9 15 9 25 0 45 -14 31
-42 34 -67 6z"/>
<path d="M3450 4072 c0 -4 16 -21 35 -36 43 -35 49 -76 11 -76 -34 0 -40 -14
-16 -35 20 -18 21 -18 50 10 17 16 30 37 30 46 0 10 -19 33 -42 52 -53 42 -68
51 -68 39z"/>
<path d="M6636 4065 c-5 -13 -45 -36 -68 -39 -17 -2 -17 -17 2 -59 25 -55 53
-62 96 -22 33 31 40 31 55 3 7 -13 18 -27 25 -31 8 -4 14 -12 14 -17 0 -6 9
-19 20 -30 11 -11 20 -27 20 -35 0 -17 16 -20 25 -6 3 6 19 17 35 25 17 9 44
23 60 32 30 16 40 34 18 34 -7 0 -28 -11 -47 -24 -20 -13 -48 -27 -63 -30 -23
-5 -28 -3 -28 13 0 11 -7 26 -15 35 -8 8 -15 18 -15 22 0 4 -11 17 -26 30 -28
27 -62 31 -70 10 -7 -17 -62 -32 -74 -20 -5 5 -10 23 -12 39 -3 26 0 30 20 27
12 -2 22 2 22 7 0 6 11 11 25 11 18 0 25 5 25 20 0 24 -35 28 -44 5z"/>
<path d="M6915 4021 c-3 -11 -19 -22 -35 -26 -16 -3 -34 -13 -41 -21 -6 -8
-20 -14 -31 -14 -13 0 -18 -6 -16 -17 5 -26 38 -29 45 -4 3 12 12 21 19 21 8
0 14 4 14 10 0 5 7 7 15 4 8 -4 17 1 21 10 3 9 16 16 29 16 22 0 40 22 28 34
-13 13 -42 5 -48 -13z"/>
<path d="M3390 3981 c0 -21 43 -41 58 -27 11 11 -14 41 -37 44 -16 3 -21 -2
-21 -17z"/>
<path d="M7034 3985 c-3 -8 -21 -17 -40 -21 -24 -4 -34 -12 -34 -25 0 -25 36
-25 49 0 6 10 22 22 36 25 14 4 25 13 25 21 0 19 -29 19 -36 0z"/>
<path d="M2940 3945 c0 -8 4 -23 9 -33 13 -25 42 -120 51 -167 4 -22 15 -60
23 -85 9 -25 25 -79 37 -120 12 -41 26 -91 32 -110 15 -53 38 -100 48 -100 5
0 13 12 16 28 4 15 25 50 46 78 21 28 38 56 38 63 0 6 7 14 16 18 8 3 29 30
46 59 16 30 35 57 41 62 7 4 18 18 25 30 12 21 11 27 -5 44 -10 11 -34 28 -54
38 -19 10 -41 26 -48 34 -8 9 -21 16 -31 16 -9 0 -25 9 -35 20 -10 11 -24 20
-30 20 -7 0 -18 6 -24 14 -6 7 -41 29 -77 47 -36 19 -70 40 -76 46 -15 18 -48
16 -48 -2z"/>
<path d="M3616 3944 c-9 -8 -14 -19 -11 -24 3 -4 -2 -13 -10 -20 -23 -19 -18
-39 13 -53 15 -6 31 -17 35 -24 10 -17 27 -17 27 0 0 8 11 24 25 37 32 30 32
58 1 66 -14 3 -27 12 -30 20 -7 19 -31 18 -50 -2z m59 -45 c8 -35 0 -48 -17
-31 -7 7 -20 12 -30 12 -10 0 -18 5 -18 10 0 6 5 10 11 10 5 0 8 4 5 9 -6 9 9
19 31 20 6 1 14 -13 18 -30z"/>
<path d="M6435 3934 c-32 -27 -37 -71 -9 -87 8 -4 14 -15 14 -22 0 -20 29 -19
36 0 4 8 12 15 20 15 8 0 14 5 14 10 0 6 7 10 15 10 19 0 20 36 1 47 -8 4 -15
17 -17 28 -6 29 -40 29 -74 -1z m71 -41 c15 -22 7 -38 -12 -22 -7 6 -11 16 -7
22 4 6 1 7 -6 3 -7 -5 -10 -14 -7 -22 3 -7 1 -16 -5 -20 -16 -9 -39 16 -39 43
0 23 3 25 31 19 18 -3 38 -14 45 -23z"/>
<path d="M7015 3884 c-66 -41 -127 -77 -135 -81 -8 -3 -43 -26 -77 -50 -60
-42 -75 -64 -53 -78 6 -3 10 -14 10 -24 0 -10 6 -24 14 -30 16 -13 106 -144
106 -154 0 -3 10 -17 23 -30 12 -12 34 -44 49 -70 28 -47 48 -61 48 -32 0 9 9
35 20 57 11 23 20 49 20 57 0 9 8 36 16 61 9 25 20 61 24 80 4 19 15 55 23 80
9 25 21 65 28 90 7 25 16 50 20 55 4 6 9 33 11 60 3 28 8 58 12 68 17 36 -40
15 -159 -59z"/>
<path d="M2618 3924 c-24 -12 -25 -16 -17 -56 4 -24 8 -46 9 -50 0 -11 40 -10
40 0 0 4 -5 13 -11 19 -6 6 -9 23 -7 39 2 21 8 29 23 29 15 0 21 -8 23 -34 2
-20 -2 -38 -10 -43 -9 -6 -5 -8 12 -6 22 3 25 8 25 46 0 39 -3 45 -31 57 -25
10 -35 10 -56 -1z"/>
<path d="M7417 3911 c-34 -58 -17 -89 53 -98 l40 -6 0 37 c0 20 -4 36 -10 36
-5 0 -10 -9 -10 -20 0 -10 -9 -24 -20 -30 -20 -11 -20 -11 -35 63 -2 12 3 17
21 17 13 0 24 -4 24 -10 0 -5 11 -9 25 -8 31 3 27 22 -6 26 -13 2 -28 8 -33
13 -17 16 -31 10 -49 -20z"/>
<path d="M3401 3838 c-8 -18 -22 -38 -30 -45 -14 -10 -14 -13 4 -20 34 -14
119 -67 138 -86 10 -10 31 -20 47 -24 17 -3 30 -9 30 -13 0 -4 19 -18 42 -30
23 -12 49 -30 58 -40 17 -19 50 -22 62 -5 4 6 8 -1 8 -15 1 -24 2 -24 13 -6 7
11 25 32 41 47 30 28 28 49 -5 49 -10 0 -19 4 -19 9 0 7 -89 69 -115 80 -5 2
-12 7 -15 10 -3 3 -21 14 -40 23 -19 10 -68 36 -108 58 -40 22 -78 40 -85 40
-7 0 -19 -15 -26 -32z m123 -45 c39 -26 75 -53 79 -60 4 -7 21 -13 37 -13 24
0 30 -4 30 -21 0 -14 5 -19 14 -16 8 3 20 -1 26 -9 8 -9 9 -14 2 -14 -6 0 -13
6 -15 13 -3 6 -6 2 -6 -9 -2 -37 -24 -46 -45 -19 -11 14 -29 25 -42 25 -14 0
-30 10 -40 25 -9 14 -24 25 -33 23 -16 -2 -71 28 -101 54 -8 7 -18 12 -22 11
-15 -5 -8 15 7 21 8 3 15 12 15 21 0 24 18 18 94 -32z m266 -171 c3 -2 -3 -10
-13 -17 -26 -19 -57 -8 -57 20 0 22 2 23 33 12 17 -6 34 -13 37 -15z"/>
<path d="M6663 3863 c-14 -5 -18 -33 -5 -33 4 0 13 5 20 12 9 9 12 7 12 -9 0
-12 5 -25 10 -28 18 -11 11 -21 -32 -43 -67 -35 -86 -47 -106 -65 -10 -10 -23
-17 -28 -17 -5 0 -20 -9 -34 -20 -46 -36 -100 -19 -64 21 9 10 13 19 9 19 -17
0 30 29 48 30 9 0 17 7 17 16 0 22 -49 10 -68 -18 -9 -12 -22 -18 -32 -15 -13
3 -17 0 -13 -9 4 -10 0 -12 -11 -8 -9 3 -16 1 -16 -5 0 -6 -6 -11 -14 -11 -8
0 -21 -8 -28 -18 -7 -10 -22 -22 -32 -25 -15 -6 -17 -10 -7 -20 9 -9 14 -9 21
3 11 18 59 23 77 8 27 -22 7 -34 -24 -15 -8 5 -13 3 -13 -7 0 -9 -4 -16 -10
-16 -5 0 -10 -11 -10 -25 0 -24 15 -35 22 -16 2 6 16 12 32 15 16 3 33 11 38
18 4 7 8 9 8 5 0 -4 12 4 27 18 15 14 44 32 63 41 19 10 37 20 40 23 3 3 30
19 60 35 30 16 57 32 60 36 3 4 20 13 38 21 38 17 40 26 7 57 -13 13 -23 29
-22 35 2 12 -21 18 -40 10z"/>
<path d="M6581 3820 c-13 -11 -29 -20 -36 -20 -7 0 -15 -9 -18 -20 -8 -29 28
-26 57 5 13 14 31 25 40 25 21 0 16 24 -5 27 -8 2 -25 -6 -38 -17z"/>
<path d="M6240 3819 c0 -5 -13 -15 -30 -20 -16 -6 -30 -15 -30 -20 0 -15 37
-10 54 6 8 9 18 15 21 15 15 -3 28 8 21 18 -9 15 -36 16 -36 1z"/>
<path d="M2715 3759 c-4 -5 6 -29 21 -52 36 -54 45 -135 18 -161 -17 -18 -19
-17 -33 15 -9 19 -19 36 -23 37 -5 2 -8 12 -8 22 0 10 -4 22 -10 25 -5 3 -10
24 -10 46 0 33 3 39 21 39 18 0 19 2 9 15 -12 15 -41 20 -52 10 -9 -9 12 -119
27 -142 8 -11 15 -36 17 -55 2 -33 3 -34 49 -36 47 -1 68 15 53 40 -3 5 -7 26
-8 46 -2 31 -8 61 -32 150 -4 15 -30 16 -39 1z"/>
<path d="M6140 3762 c-8 -3 -26 -13 -39 -23 -13 -11 -30 -19 -37 -19 -7 0 -28
-13 -46 -30 -18 -16 -36 -30 -41 -30 -16 0 -58 -38 -48 -44 5 -4 15 -1 23 6 7
7 18 13 23 14 21 1 65 24 65 34 0 5 13 10 29 10 21 0 32 6 36 20 4 12 15 20
30 20 24 0 38 19 27 37 -4 5 -14 8 -22 5z"/>
<path d="M7370 3756 c0 -19 27 -40 34 -27 4 6 13 8 21 4 21 -8 19 -59 -6 -123
-27 -72 -34 -100 -22 -100 20 0 42 36 36 58 -3 12 -1 28 5 35 5 6 13 27 17 45
3 17 11 32 16 32 15 0 10 46 -6 60 -8 7 -15 9 -15 5 0 -4 -7 -2 -15 5 -8 7
-15 10 -15 6 0 -3 -11 -1 -25 4 -19 7 -25 6 -25 -4z"/>
<path d="M6230 3710 c0 -5 -7 -10 -15 -10 -8 0 -15 -4 -15 -9 0 -5 -10 -11
-22 -13 -34 -5 -37 -38 -4 -38 19 0 26 5 26 20 0 14 9 21 35 26 37 7 49 34 15
34 -11 0 -20 -4 -20 -10z"/>
<path d="M7347 3663 c-23 -72 -26 -127 -6 -131 14 -2 15 5 11 47 -2 28 0 57 5
63 15 19 25 68 14 68 -5 0 -16 -21 -24 -47z"/>
<path d="M3423 3653 c-13 -9 -23 -26 -23 -39 0 -29 13 -31 38 -4 21 22 36 14
43 -24 6 -29 29 -32 29 -4 0 14 -14 37 -32 55 -31 29 -34 30 -55 16z"/>
<path d="M6643 3643 c-25 -13 -33 -23 -33 -44 0 -14 7 -32 15 -39 8 -7 15 -19
15 -26 0 -23 33 -15 69 17 l33 31 -19 36 c-22 43 -36 47 -80 25z m37 -18 c0
-7 8 -18 18 -24 16 -9 16 -11 1 -26 -11 -11 -24 -14 -42 -9 -31 7 -35 29 -10
56 19 22 33 23 33 3z"/>
<path d="M6108 3634 c-16 -8 -28 -22 -28 -30 0 -12 -7 -15 -25 -12 -14 3 -28
1 -31 -4 -3 -5 -15 0 -25 11 -27 29 -39 26 -39 -8 0 -20 8 -35 22 -45 29 -21
35 -20 43 4 4 12 15 20 27 20 11 0 31 12 44 26 13 14 28 23 33 19 13 -7 26 15
15 25 -5 5 -21 2 -36 -6z"/>
<path d="M3860 3559 c-32 -49 -34 -79 -6 -79 8 0 22 -8 32 -17 28 -28 42 -23
63 23 26 54 27 77 4 72 -10 -2 -18 -11 -18 -21 0 -10 -6 -21 -13 -26 -7 -4
-10 -15 -6 -24 4 -11 1 -17 -9 -17 -8 0 -17 10 -21 23 -11 40 -7 57 13 57 24
0 33 13 25 33 -12 32 -32 25 -64 -24z"/>
<path d="M4222 3557 c-12 -24 -22 -51 -22 -59 0 -18 41 -48 65 -48 22 0 52 34
59 68 6 26 3 32 -31 53 -21 13 -41 25 -44 27 -3 1 -15 -17 -27 -41z m62 -40
c10 -38 7 -44 -19 -39 -14 2 -25 9 -25 16 0 6 -3 21 -6 32 -5 19 -2 21 19 17
15 -3 28 -14 31 -26z"/>
<path d="M5849 3584 c-7 -9 -23 -20 -36 -25 -19 -7 -22 -13 -16 -41 3 -18 9
-35 13 -38 3 -3 9 -13 13 -22 8 -23 38 -23 59 1 8 10 21 20 28 23 9 3 11 15 6
42 -8 42 -20 38 -33 -10 -7 -27 -11 -30 -30 -23 -17 6 -23 16 -23 38 0 29 11
34 37 18 17 -11 21 5 8 31 -11 20 -13 21 -26 6z"/>
<path d="M6194 3583 c-10 -11 -27 -23 -37 -26 -15 -6 -16 -10 -6 -28 9 -17 13
-19 20 -8 5 8 9 10 9 4 0 -5 -4 -17 -9 -24 -14 -21 5 -50 31 -48 30 2 78 47
78 74 0 13 -9 27 -22 34 -13 7 -28 19 -34 27 -9 13 -13 12 -30 -5z m42 -48 c3
-14 3 -32 0 -41 -10 -25 -36 2 -36 37 0 37 27 39 36 4z"/>
<path d="M3370 3583 c0 -4 9 -14 21 -21 18 -12 20 -11 17 5 -3 17 -38 32 -38
16z"/>
<path d="M3425 3559 c-7 -10 23 -39 41 -39 26 0 16 37 -11 42 -14 3 -28 2 -30
-3z"/>
<path d="M3567 3563 c-4 -3 -7 -14 -7 -24 0 -9 -9 -19 -19 -22 -12 -3 -21 -15
-23 -33 -2 -17 -8 -28 -16 -26 -7 1 -15 -11 -18 -27 -4 -17 -14 -31 -25 -34
-24 -7 -14 -37 12 -37 10 0 19 -7 19 -15 0 -8 8 -16 18 -16 9 -1 24 -2 32 -3
8 0 22 8 31 19 22 29 59 103 59 120 0 27 -18 16 -25 -15 -4 -17 -15 -34 -24
-40 -10 -5 -21 -23 -24 -39 -5 -22 -11 -29 -22 -25 -8 3 -15 10 -15 15 0 5 -7
9 -15 9 -8 0 -15 7 -15 15 0 8 5 15 10 15 6 0 10 9 10 21 0 12 11 30 25 41 14
11 25 25 25 31 0 7 12 20 26 30 20 15 28 16 39 7 8 -7 15 -18 15 -26 0 -20 21
-28 31 -13 14 22 12 24 -40 52 -53 30 -55 30 -64 20z"/>
<path d="M6510 3562 c-26 -9 -71 -60 -59 -67 6 -4 19 2 30 14 34 36 68 26 99
-30 55 -102 57 -119 14 -119 -29 0 -68 40 -86 88 -7 17 -16 32 -20 32 -17 0
-6 -29 35 -93 47 -75 65 -81 111 -41 25 22 28 29 18 43 -7 9 -15 23 -19 31 -3
8 -21 36 -40 63 -18 26 -33 51 -33 57 0 14 -32 28 -50 22z"/>
<path d="M2955 3530 c-3 -5 -15 -10 -25 -10 -28 0 -32 -15 -19 -61 13 -43 33
-59 51 -41 6 6 18 8 27 5 12 -3 11 -2 -2 7 -10 7 -21 9 -24 7 -3 -3 -15 3 -26
14 -21 19 -21 19 -1 34 32 25 52 14 69 -39 4 -15 9 -16 17 -8 9 9 6 23 -12 57
-22 43 -42 56 -55 35z"/>
<path d="M7121 3517 c-5 -14 -15 -28 -20 -32 -24 -14 -11 -45 25 -60 52 -22
57 -20 79 28 11 23 21 44 22 47 2 3 -12 10 -29 16 -18 6 -41 14 -50 19 -13 5
-20 1 -27 -18z m67 -17 c17 0 6 -40 -15 -57 -20 -16 -40 -7 -47 23 -9 33 1 47
28 40 11 -3 27 -6 34 -6z"/>
<path d="M3320 3505 c0 -8 -8 -19 -19 -24 -10 -6 -21 -21 -24 -33 -4 -13 -22
-41 -42 -62 -19 -21 -35 -46 -35 -54 0 -9 -10 -26 -21 -38 -12 -13 -19 -30
-16 -38 8 -21 27 -21 27 0 0 8 11 30 25 48 14 18 25 37 25 42 0 5 9 15 20 22
11 7 20 19 20 26 0 8 9 18 20 21 13 4 20 15 20 31 0 17 5 24 20 24 17 0 20 -7
20 -44 0 -35 -4 -45 -20 -49 -14 -3 -20 -14 -20 -31 0 -19 5 -26 20 -26 15 0
20 7 20 25 0 16 6 25 15 25 8 0 15 9 15 20 0 11 9 29 20 40 28 28 25 38 -15
54 -19 8 -35 20 -35 25 0 6 -9 11 -20 11 -11 0 -20 -7 -20 -15z"/>
<path d="M6756 3504 c-8 -21 1 -34 25 -34 10 0 19 -5 19 -11 0 -6 14 -27 31
-47 17 -19 36 -47 43 -62 6 -14 17 -32 24 -40 24 -29 82 -120 82 -130 0 -6 12
-24 27 -41 15 -16 40 -49 55 -72 19 -28 28 -36 28 -24 0 11 6 31 14 45 7 15
21 61 30 102 10 41 22 87 28 102 16 43 -4 68 -56 68 l-44 0 -7 -42 c-8 -54
-35 -118 -49 -118 -11 0 -96 122 -96 138 0 5 -9 17 -19 26 -11 10 -29 38 -41
62 -11 25 -27 47 -35 50 -8 4 -15 15 -15 25 0 23 -35 26 -44 3z m380 -211 c-3
-16 -8 -39 -10 -53 -6 -39 -22 -72 -49 -105 l-25 -30 -8 29 c-4 17 -2 52 5 80
6 28 14 63 18 79 4 23 10 27 40 27 32 0 34 -2 29 -27z"/>
<path d="M4013 3465 c-28 -43 -29 -65 -3 -72 11 -3 20 -9 20 -13 0 -4 25 -20
56 -36 31 -16 62 -37 68 -46 6 -10 18 -18 26 -18 8 0 38 -15 65 -32 63 -40 87
-55 165 -96 35 -19 64 -42 67 -53 7 -26 83 -28 83 -3 0 9 9 25 20 34 l21 18
-25 25 c-13 13 -31 27 -40 30 -9 4 -41 22 -71 42 -31 19 -57 35 -60 35 -2 0
-24 14 -48 30 -54 36 -84 40 -42 5 17 -13 33 -24 37 -25 4 0 38 -20 75 -45 37
-25 73 -45 80 -45 7 0 13 -6 13 -14 0 -8 7 -17 15 -20 13 -4 14 -10 5 -26 -14
-26 -47 -25 -86 3 -77 54 -143 94 -192 117 -29 14 -55 33 -58 42 -3 10 -13 18
-22 18 -18 1 -70 31 -115 66 -36 29 -38 76 -4 70 27 -5 78 -31 125 -65 18 -13
36 -20 40 -16 9 8 -44 55 -62 55 -7 0 -21 9 -30 19 -10 11 -31 23 -47 26 -16
4 -29 11 -29 16 0 21 -27 6 -47 -26z"/>
<path d="M6071 3486 c-6 -7 -23 -11 -40 -8 -22 3 -30 -1 -35 -15 -3 -10 -18
-24 -33 -31 -52 -23 -83 -43 -83 -53 0 -15 30 -10 36 5 3 8 18 18 34 21 16 3
34 13 41 21 6 8 22 14 35 14 13 0 24 5 24 10 0 21 19 9 28 -19 9 -25 7 -30
-14 -40 -28 -13 -24 -32 5 -24 34 9 63 43 57 67 -3 11 -6 26 -6 31 0 6 -9 16
-19 22 -15 10 -22 9 -30 -1z"/>
<path d="M4360 3450 c-25 -49 -28 -45 102 -124 54 -32 103 -65 109 -72 6 -8
18 -14 26 -14 13 0 54 -25 98 -61 11 -9 36 -22 55 -29 19 -7 49 -23 65 -35 17
-12 55 -36 86 -53 32 -18 60 -39 63 -47 3 -8 16 -15 28 -15 13 0 29 -9 36 -20
7 -11 21 -20 32 -20 11 0 25 9 32 20 7 11 21 20 32 20 10 0 29 10 42 23 36 35
75 61 124 82 25 10 54 26 65 35 44 34 83 59 127 79 26 11 50 26 53 31 4 6 22
17 41 25 32 13 53 39 42 51 -11 10 -60 -17 -65 -37 -3 -12 -12 -19 -23 -17
-10 2 -26 -4 -36 -13 -11 -9 -50 -35 -89 -57 -38 -22 -89 -52 -111 -66 -50
-31 -56 -32 -79 -6 -22 25 -13 38 50 69 25 12 45 27 45 32 0 5 7 9 15 9 8 0
29 9 47 20 18 11 41 20 51 20 9 0 17 8 17 18 0 11 9 17 27 19 15 0 35 11 44
22 10 12 24 21 32 21 19 0 41 26 33 39 -9 14 -31 4 -95 -41 -30 -21 -59 -38
-65 -38 -5 0 -20 -10 -32 -21 -13 -12 -32 -27 -43 -33 -112 -63 -153 -90 -158
-102 -3 -8 -12 -14 -21 -14 -8 0 -23 -6 -31 -13 -42 -35 -64 -36 -126 -6 -33
17 -67 39 -77 49 -9 11 -20 20 -26 20 -18 0 -296 171 -307 190 -3 6 -13 10
-22 10 -9 0 -24 7 -33 15 -23 21 -127 75 -145 75 -8 0 -24 -18 -35 -40z m155
-50 c6 0 20 -9 30 -20 10 -11 24 -20 31 -20 8 0 59 -28 114 -62 56 -35 116
-71 133 -81 49 -29 88 -72 81 -91 -3 -9 -12 -16 -19 -16 -15 0 -104 47 -125
66 -9 7 -43 27 -75 45 -33 17 -67 37 -75 44 -8 7 -37 25 -65 39 -133 71 -157
94 -139 134 4 9 6 21 5 25 -1 5 20 -8 45 -27 26 -20 52 -36 59 -36z m689 -282
c9 -35 9 -35 -41 -60 -26 -13 -55 -31 -65 -40 -22 -22 -61 -23 -78 -3 -6 7
-36 28 -66 45 -51 28 -53 31 -38 49 13 15 23 17 45 11 16 -5 37 -16 46 -25 21
-21 92 -15 105 9 5 9 18 16 28 16 10 0 22 5 25 10 11 18 32 11 39 -12z"/>
<path d="M3705 3456 c-11 -12 -31 -44 -45 -71 -14 -28 -49 -84 -79 -125 -29
-41 -57 -84 -61 -95 -4 -12 -15 -27 -24 -34 -9 -7 -16 -19 -16 -26 0 -6 -9
-20 -20 -30 -11 -10 -20 -26 -20 -36 0 -10 -8 -23 -19 -28 -33 -18 -38 -91 -6
-91 6 0 20 -9 30 -20 10 -11 23 -20 30 -20 7 0 20 -9 30 -20 10 -11 28 -20 40
-20 12 0 30 -9 40 -20 10 -11 24 -20 30 -20 7 0 18 -7 25 -15 7 -8 41 -29 75
-45 34 -16 68 -37 75 -45 7 -8 18 -15 25 -15 6 0 20 -9 30 -20 10 -11 22 -20
27 -20 5 0 28 -13 51 -28 23 -16 60 -36 82 -46 22 -10 45 -23 50 -30 18 -19
74 -56 86 -56 7 0 22 -9 33 -19 12 -10 44 -31 73 -46 28 -14 57 -33 64 -41 6
-8 18 -14 26 -14 8 0 31 -13 51 -30 20 -16 53 -36 73 -44 19 -8 41 -22 49 -30
7 -9 18 -16 25 -16 7 0 18 -6 24 -14 7 -8 40 -29 74 -47 34 -17 69 -38 78 -45
8 -8 19 -14 24 -14 5 0 18 -8 29 -18 32 -28 155 -102 170 -102 7 0 21 -9 31
-20 10 -11 28 -20 41 -20 14 0 25 -8 29 -20 9 -28 33 -24 85 15 25 19 68 46
95 61 28 15 61 35 74 45 13 11 30 19 37 19 8 0 14 5 14 11 0 5 15 17 33 25 17
9 50 26 72 39 22 14 51 30 65 37 14 6 34 19 45 29 11 9 37 26 59 37 21 12 47
30 58 41 10 12 27 21 37 21 10 0 30 9 44 20 14 11 29 20 35 20 5 0 17 9 27 20
10 11 23 20 30 20 7 0 20 9 30 20 10 11 25 20 34 20 9 0 24 9 34 20 9 11 25
20 35 20 11 0 27 9 37 20 10 11 24 20 30 20 7 0 18 7 25 15 7 9 32 24 54 35
23 10 56 30 75 44 19 14 40 26 46 26 7 0 20 9 30 20 10 11 23 20 30 20 7 0 20
9 30 20 10 11 22 20 27 20 6 0 21 9 35 20 14 11 33 20 43 20 9 0 25 9 35 20
10 11 24 20 30 20 7 0 18 6 24 14 7 8 36 27 64 41 29 15 60 36 70 46 10 11 26
19 36 19 10 0 24 6 30 14 13 16 3 40 -35 86 -12 14 -30 41 -40 60 -10 19 -27
41 -36 48 -10 7 -18 21 -18 31 0 10 -9 26 -20 36 -11 10 -20 22 -20 26 0 13
-59 96 -91 128 -16 16 -29 36 -29 45 0 8 -10 30 -22 50 -17 26 -30 35 -50 36
-16 0 -28 -4 -28 -9 0 -13 -90 -71 -111 -71 -10 0 -22 -6 -26 -14 -4 -8 -24
-21 -43 -30 -48 -21 -72 -38 -88 -58 -7 -10 -21 -18 -31 -18 -10 0 -25 -7 -32
-16 -7 -9 -22 -20 -34 -25 -11 -6 -42 -23 -70 -39 -27 -17 -57 -33 -65 -37 -8
-4 -24 -15 -34 -25 -11 -10 -25 -18 -31 -18 -7 0 -20 -9 -30 -20 -10 -11 -28
-20 -40 -20 -13 0 -25 -7 -29 -15 -3 -8 -16 -20 -28 -25 -13 -5 -41 -21 -63
-35 -22 -13 -56 -33 -75 -43 -54 -28 -83 -46 -103 -61 -22 -18 -53 -36 -94
-56 -18 -8 -33 -20 -33 -25 0 -5 -12 -13 -26 -16 -15 -4 -35 -15 -45 -25 -11
-11 -26 -19 -34 -19 -8 0 -15 -5 -15 -11 0 -5 -15 -17 -32 -25 -18 -8 -41 -20
-50 -27 -14 -9 -22 -9 -35 0 -10 7 -33 19 -50 27 -18 8 -33 20 -33 25 0 6 -9
11 -20 11 -10 0 -27 8 -37 18 -10 11 -25 21 -34 24 -8 3 -52 31 -97 62 -46 31
-88 56 -94 56 -6 0 -36 17 -67 37 -54 37 -67 45 -141 85 -67 37 -80 45 -98 61
-10 10 -23 17 -29 17 -6 0 -16 7 -23 16 -8 8 -29 22 -48 30 -19 8 -68 37 -108
64 -40 28 -76 50 -79 50 -5 0 -30 15 -142 87 -28 18 -56 33 -61 33 -5 0 -17 9
-27 20 -10 11 -23 20 -30 20 -7 0 -20 9 -30 20 -23 26 -65 24 -90 -4z"/>
<path d="M5653 3460 c-10 -11 -25 -20 -33 -20 -17 0 -40 -19 -40 -32 0 -4 11
-8 25 -8 17 0 28 7 34 23 7 18 18 23 50 25 34 2 41 0 41 -15 0 -25 -9 -35 -55
-60 -48 -26 -59 -53 -21 -53 14 0 26 4 26 9 0 6 14 18 30 28 17 9 33 25 36 35
3 10 12 18 20 18 8 0 14 5 14 10 0 6 -4 10 -9 10 -5 0 -19 11 -32 25 -29 30
-63 32 -86 5z"/>
<path d="M6700 3470 c-12 -8 -13 -12 -2 -19 16 -9 33 -39 58 -93 14 -33 44
-53 44 -30 0 9 -31 55 -42 63 -5 3 -10 23 -12 45 -4 40 -19 52 -46 34z"/>
<path d="M7286 3469 c-2 -8 -11 -36 -20 -63 -9 -27 -16 -58 -16 -68 0 -11 -11
-44 -26 -73 -14 -30 -24 -60 -22 -67 1 -7 -7 -42 -19 -78 -30 -95 -56 -183
-59 -199 -5 -28 -25 -37 -38 -18 -6 10 -37 54 -68 97 -32 44 -58 88 -58 100 0
11 -5 20 -10 20 -6 0 -31 33 -57 73 -55 86 -52 82 -58 75 -7 -6 15 -68 24 -68
12 0 61 -81 61 -101 0 -14 -7 -19 -29 -19 -32 0 -65 25 -55 41 3 6 -4 18 -15
28 -12 10 -21 23 -21 29 0 6 -12 23 -27 39 -16 16 -34 38 -41 48 -7 11 -17 27
-23 35 -8 13 -11 13 -22 -2 -7 -9 -25 -20 -40 -23 -15 -4 -27 -10 -27 -15 0
-11 30 -69 40 -75 4 -3 17 -23 29 -45 11 -22 41 -68 66 -102 25 -34 45 -68 45
-76 0 -7 16 -33 36 -58 31 -37 34 -45 22 -58 -8 -7 -23 -15 -33 -17 -26 -6
-31 -29 -6 -29 12 0 21 5 21 10 0 6 5 10 11 10 12 0 39 25 39 37 1 18 -56 122
-66 123 -6 0 -31 30 -55 67 -91 137 -89 133 -61 133 10 0 23 5 30 12 9 9 13 7
18 -5 3 -10 19 -31 34 -47 15 -16 35 -45 44 -65 18 -38 31 -42 60 -20 32 24
49 17 86 -36 19 -27 49 -69 66 -92 17 -23 34 -51 38 -62 6 -18 9 -17 31 10 13
17 27 44 30 60 10 44 28 99 37 109 4 6 8 21 8 35 0 15 12 49 25 76 14 28 25
66 25 85 0 19 7 48 15 64 8 15 15 38 15 51 0 26 35 75 55 75 31 0 37 -27 19
-87 -27 -93 -51 -172 -84 -270 -16 -50 -30 -100 -30 -110 0 -11 -7 -28 -15
-39 -8 -10 -15 -31 -15 -46 0 -17 -10 -34 -27 -48 -50 -38 -104 -70 -119 -70
-8 0 -18 -10 -23 -22 -5 -13 -11 -22 -15 -20 -20 8 -49 0 -53 -15 -5 -21 -103
-66 -130 -61 -10 2 -18 10 -18 17 0 17 -21 26 -29 13 -3 -6 1 -15 9 -22 8 -7
15 -21 15 -31 0 -30 60 -26 84 6 10 14 24 25 31 25 7 0 18 7 25 15 7 8 21 15
31 15 11 0 19 4 19 9 0 5 16 16 36 26 19 9 37 22 40 30 3 7 18 15 33 18 25 5
47 24 114 98 10 11 17 35 17 57 0 21 9 55 20 77 11 22 20 47 20 56 0 9 7 36
16 60 9 24 27 87 40 139 29 113 43 150 56 150 5 0 8 10 6 23 -2 16 -11 23 -32
25 -16 2 -40 11 -52 19 -20 12 -25 13 -28 2z m-565 -221 c21 -27 24 -42 7 -35
-7 2 -23 1 -35 -4 -15 -5 -25 -3 -35 9 -27 31 -29 40 -9 35 10 -3 22 0 25 6
11 17 26 13 47 -11z"/>
<path d="M2804 3443 c4 -16 14 -33 22 -40 9 -6 18 -31 21 -55 2 -24 11 -60 19
-81 8 -20 14 -48 14 -62 0 -13 9 -40 19 -59 11 -18 23 -55 26 -80 4 -26 14
-54 23 -63 11 -11 15 -32 13 -72 -1 -41 1 -52 9 -41 5 8 10 11 10 6 0 -5 6 -3
14 3 17 14 4 84 -19 108 -8 8 -18 26 -21 41 -3 15 -12 47 -20 71 -8 25 -14 62
-14 83 0 21 -4 38 -8 38 -14 0 -42 58 -42 89 0 37 -44 141 -61 141 -7 0 -9 -9
-5 -27z"/>
<path d="M2724 3409 c3 -17 15 -43 26 -59 11 -15 20 -44 20 -63 0 -20 5 -48
10 -63 9 -22 13 -25 23 -14 9 10 9 13 0 17 -8 3 -13 24 -13 54 0 37 -5 54 -21
70 -19 19 -20 24 -8 48 7 14 15 29 17 34 2 4 -11 7 -28 7 -31 0 -32 -2 -26
-31z"/>
<path d="M2959 3333 c-4 -73 11 -149 33 -164 4 -3 11 -33 14 -66 6 -58 8 -61
32 -60 19 2 28 10 35 32 5 17 16 37 23 46 8 8 14 19 14 24 0 4 11 23 25 41 14
18 25 37 25 43 0 18 -30 12 -37 -6 -4 -10 -14 -23 -22 -30 -9 -6 -16 -15 -16
-20 -2 -19 -17 -53 -25 -53 -16 0 -60 89 -60 123 0 19 -7 40 -16 47 -13 12
-11 15 17 27 44 18 45 18 48 -29 2 -49 21 -94 36 -88 12 5 7 33 -6 38 -5 2 -9
19 -9 37 0 19 -4 45 -10 59 -8 23 -15 26 -55 26 -42 0 -45 -2 -46 -27z"/>
<path d="M5991 3353 c-13 -3 -26 -13 -28 -24 -3 -12 -14 -19 -29 -19 -12 0
-26 -5 -30 -11 -3 -6 -22 -17 -40 -25 -19 -8 -34 -18 -34 -23 0 -10 -27 -21
-44 -20 -5 0 -13 -6 -18 -15 -5 -9 -18 -16 -29 -16 -11 0 -22 -6 -25 -14 -3
-8 -19 -18 -35 -21 -18 -4 -35 -17 -41 -30 -9 -20 -13 -22 -44 -12 -38 11 -45
32 -14 40 21 5 27 31 10 42 -5 3 -23 -1 -38 -11 -22 -12 -28 -22 -24 -40 2
-13 11 -24 18 -24 8 0 19 -11 24 -25 11 -30 20 -31 62 -5 18 11 41 20 50 20 9
0 20 9 23 20 4 13 15 20 31 20 13 0 29 9 36 20 7 11 18 20 25 20 7 0 21 8 31
18 10 9 31 24 47 32 17 8 34 21 38 27 4 7 17 13 27 13 11 0 20 4 20 9 0 5 16
16 35 25 30 15 49 39 28 35 -5 -1 -19 -4 -32 -6z"/>
<path d="M5770 3319 c-25 -16 -46 -34 -48 -39 -2 -6 -9 -10 -16 -10 -19 0 -90
-39 -98 -54 -5 -8 -4 -17 2 -21 10 -6 60 22 60 35 0 9 39 25 51 22 4 0 15 8
24 18 10 11 22 20 28 20 11 0 57 42 57 53 0 12 -13 7 -60 -24z"/>
<path d="M3405 3299 c-7 -11 27 -49 44 -49 5 0 12 -7 15 -16 3 -8 2 -12 -3 -9
-5 3 -12 1 -16 -5 -6 -10 -65 -15 -65 -5 0 3 5 14 12 25 7 10 9 22 6 26 -13
12 -38 -5 -38 -26 0 -11 -9 -25 -20 -32 -11 -7 -20 -21 -20 -31 0 -10 -7 -20
-15 -23 -8 -3 -20 -21 -27 -40 -10 -28 -17 -34 -37 -32 -34 4 -49 31 -28 52 8
9 19 25 22 36 3 11 10 20 15 20 10 0 52 71 46 78 -10 9 -56 -28 -56 -46 0 -9
-9 -23 -20 -30 -11 -7 -20 -19 -20 -27 0 -8 -9 -19 -20 -25 -11 -6 -20 -19
-20 -30 0 -11 -9 -24 -20 -30 -11 -6 -20 -16 -20 -22 0 -15 -51 -90 -67 -101
-7 -4 -13 -14 -13 -22 0 -7 -6 -20 -13 -27 -22 -22 -27 -46 -11 -58 11 -10 14
-9 14 3 0 17 38 80 65 108 8 9 15 21 15 28 0 6 11 16 24 22 14 7 27 22 30 35
7 26 36 33 36 9 0 -10 11 -15 35 -15 25 0 35 4 35 15 0 9 7 18 15 21 8 4 15
11 15 18 0 6 14 26 30 44 17 18 30 40 30 48 0 17 12 18 28 2 17 -17 15 -67 -3
-74 -8 -4 -15 -12 -15 -20 0 -8 -11 -24 -25 -36 -14 -12 -25 -29 -25 -39 0 -9
-7 -22 -15 -29 -20 -16 -67 -109 -60 -119 2 -5 -8 -6 -23 -3 l-27 5 30 -24
c52 -42 103 -79 111 -79 4 0 22 -11 40 -25 39 -29 67 -33 62 -7 -2 10 -14 18
-30 20 -14 2 -34 12 -44 23 -9 10 -23 19 -29 19 -16 0 -75 54 -75 69 0 6 14
26 30 44 17 19 30 42 30 51 0 9 9 21 20 28 11 7 20 21 20 30 0 10 5 18 10 18
6 0 10 6 10 14 0 8 14 28 30 46 17 18 30 35 30 40 0 4 9 15 20 25 11 10 20 26
20 36 0 10 5 21 10 24 18 11 11 35 -13 44 -13 5 -29 16 -36 25 -16 19 -27 20
-36 5z"/>
<path d="M2818 3214 c-15 -14 -8 -89 12 -133 11 -24 20 -56 20 -71 0 -15 7
-33 15 -40 8 -7 15 -25 15 -41 0 -32 18 -48 31 -28 4 7 4 16 -1 19 -10 6 -34
77 -45 130 -4 19 -13 38 -19 42 -6 4 -13 35 -16 69 -3 33 -8 57 -12 53z"/>
<path d="M5422 3105 c-17 -14 -35 -25 -41 -25 -14 0 -14 -27 0 -35 5 -4 14
-18 19 -31 11 -28 24 -30 64 -9 15 8 35 15 42 15 24 0 15 44 -17 78 -16 17
-32 32 -34 32 -2 0 -17 -11 -33 -25z m56 -47 c-3 -24 -35 -35 -64 -24 -27 10
2 46 37 46 26 0 30 -3 27 -22z"/>
<path d="M4623 3090 c-35 -43 -30 -64 18 -83 32 -13 45 -14 60 -4 10 6 19 17
19 23 0 7 7 14 15 18 19 7 20 36 0 36 -8 0 -20 9 -27 20 -18 29 -59 25 -85
-10z m73 -25 c4 -8 4 -22 0 -30 -8 -21 -50 -3 -54 24 -3 17 2 21 23 21 14 0
28 -7 31 -15z"/>
<path d="M4777 2989 l-25 -50 42 -27 c22 -14 61 -38 85 -54 24 -15 47 -25 52
-22 4 2 13 -5 19 -16 6 -11 17 -20 24 -20 7 0 21 -9 31 -20 12 -13 31 -20 56
-20 28 0 41 5 49 20 6 11 20 20 30 20 11 0 20 4 20 9 0 8 95 71 109 71 4 0 16
8 27 18 10 9 33 23 49 31 17 8 24 16 18 18 -7 3 -13 12 -13 21 0 9 -12 28 -26
43 l-26 27 -36 -23 c-21 -13 -45 -31 -55 -40 -10 -9 -29 -20 -43 -25 -14 -6
-41 -22 -60 -37 l-35 -26 -46 22 c-24 12 -72 39 -106 61 -33 22 -65 40 -69 40
-4 0 -8 7 -8 15 0 8 -8 15 -19 15 -12 0 -27 -17 -44 -51z m537 -5 c13 -35 4
-50 -48 -82 -30 -17 -58 -32 -64 -32 -5 0 -15 -7 -22 -14 -19 -23 -93 -56
-127 -56 -17 0 -42 9 -56 20 -14 11 -32 20 -40 20 -8 0 -20 7 -27 15 -6 8 -21
17 -32 21 -11 3 -35 16 -54 29 -19 13 -40 25 -46 27 -7 3 -9 14 -5 29 9 33 50
36 91 6 17 -13 58 -39 91 -57 33 -19 66 -40 74 -48 11 -11 17 -10 33 8 11 12
30 26 41 31 35 16 69 36 76 46 8 11 83 51 97 52 7 1 15 -6 18 -15z"/>
<path d="M3183 2978 c-13 -13 -23 -31 -23 -39 0 -8 -9 -22 -20 -32 -19 -16
-28 -57 -12 -57 4 0 15 12 25 28 9 15 26 42 38 59 11 18 19 40 17 49 -2 13 -7
12 -25 -8z"/>
<path d="M6910 2984 c0 -19 65 -124 77 -124 9 0 11 5 7 13 -56 91 -84 129 -84
111z"/>
<path d="M3352 2873 c2 -9 12 -20 23 -23 37 -10 65 -35 65 -57 0 -30 16 -30
24 0 9 33 8 35 -13 42 -10 3 -31 17 -45 30 -31 29 -59 33 -54 8z"/>
<path d="M6740 2882 c-8 -4 -34 -19 -57 -34 -36 -24 -41 -31 -34 -50 11 -31
34 -37 26 -6 -5 19 -1 27 20 36 14 7 32 12 40 12 8 0 19 9 25 19 17 32 12 37
-20 23z"/>
<path d="M3091 2847 c-16 -16 -13 -47 5 -47 27 0 166 -83 197 -118 50 -55 -36
-53 -114 2 -27 20 -54 36 -59 36 -6 0 -33 16 -60 35 -27 19 -56 35 -64 35 -28
0 -46 12 -46 31 0 10 -4 19 -10 19 -18 0 -10 -29 13 -45 57 -41 131 -84 138
-80 4 3 9 -1 12 -9 3 -7 29 -25 59 -40 29 -15 60 -36 70 -47 10 -12 29 -19 52
-19 29 0 36 4 36 20 0 11 6 29 12 40 11 16 9 22 -7 35 -31 25 -159 105 -167
105 -3 0 -9 8 -12 18 -9 26 -41 43 -55 29z"/>
<path d="M6981 2821 c-13 -16 -30 -27 -37 -24 -6 2 -18 -4 -26 -14 -14 -19
-62 -51 -90 -60 -10 -3 -18 -12 -18 -19 0 -18 19 -18 26 0 3 8 19 18 35 21 16
4 32 12 36 19 11 16 59 46 76 46 24 0 48 25 41 43 -9 23 -15 22 -43 -12z"/>
<path d="M6753 2774 c-4 -10 -16 -14 -37 -12 -26 2 -32 -1 -34 -19 -4 -28 28
-32 49 -7 7 9 23 20 36 25 13 5 23 13 23 19 0 16 -30 12 -37 -6z"/>
<path d="M3505 2734 c-26 -34 -27 -36 -9 -56 25 -27 68 -48 81 -40 6 4 13 17
17 30 4 12 12 22 17 22 16 0 10 35 -9 51 -10 9 -30 19 -44 22 -21 6 -30 1 -53
-29z m75 -44 c-15 -27 -55 -24 -55 5 0 14 9 21 30 25 35 7 41 -1 25 -30z"/>
<path d="M6550 2748 c-5 -13 -9 -18 -9 -11 -1 16 -51 -8 -51 -24 0 -18 27 -16
33 1 3 8 14 13 24 11 10 -2 24 -4 31 -4 7 -1 17 -12 22 -26 6 -16 14 -23 25
-19 19 8 19 18 -1 35 -9 7 -20 23 -25 36 -11 29 -37 30 -49 1z"/>
<path d="M3690 2670 c0 -11 -6 -20 -13 -20 -8 0 -22 -18 -32 -39 -28 -63 -59
-68 -139 -21 -36 21 -75 42 -86 45 -28 9 -59 -30 -60 -73 0 -27 5 -34 28 -43
31 -11 39 -15 67 -32 11 -7 52 -30 90 -52 39 -21 84 -49 101 -62 17 -13 36
-23 41 -23 6 0 16 -7 23 -15 7 -8 18 -15 26 -15 17 0 64 47 64 64 0 17 -42 56
-61 56 -8 0 -20 9 -27 20 -18 29 -46 27 -38 -2 4 -13 8 -30 9 -38 3 -20 17
-29 34 -23 10 4 11 9 2 19 -8 9 -8 14 -1 14 6 0 13 -4 17 -10 3 -5 11 -7 19
-4 9 3 11 -3 8 -26 -5 -38 -35 -40 -86 -7 -32 21 -156 94 -217 128 -48 27 -59
40 -59 70 0 27 2 29 26 23 15 -4 49 -22 78 -40 28 -19 60 -34 73 -34 12 0 23
-7 26 -17 3 -13 9 -8 21 20 9 20 20 37 25 37 5 0 12 14 16 31 4 17 13 33 21
36 20 7 99 -24 133 -53 16 -13 35 -24 43 -24 7 0 19 -9 26 -20 7 -11 20 -20
29 -20 9 0 38 -18 64 -40 26 -22 57 -40 68 -40 12 0 21 -4 21 -9 0 -11 87 -61
107 -61 19 0 33 -41 21 -62 -9 -19 -38 -25 -38 -8 0 6 -6 10 -14 10 -8 0 -27
11 -43 24 -15 13 -38 26 -50 30 -11 4 -27 13 -33 21 -13 16 -40 21 -40 8 1
-15 80 -74 101 -76 11 -1 25 -9 30 -19 5 -10 16 -18 23 -18 18 0 26 -22 19
-49 -6 -25 -16 -27 -33 -6 -16 19 -50 20 -50 1 0 -8 10 -18 23 -22 12 -3 29
-12 37 -20 14 -11 18 -9 34 21 11 19 23 35 28 35 4 0 8 7 8 16 0 8 12 31 26
50 15 19 25 36 23 37 -2 2 -21 15 -41 30 -20 15 -40 27 -44 27 -4 0 -22 11
-40 25 -18 14 -37 25 -43 25 -5 0 -14 6 -18 13 -4 7 -21 18 -37 25 -16 7 -52
29 -81 47 -29 19 -57 35 -64 35 -6 0 -11 5 -11 11 0 5 -21 19 -47 31 -27 11
-59 30 -73 43 -37 33 -60 39 -60 15z"/>
<path d="M6519 2663 c9 -35 30 -40 61 -13 28 24 27 26 -27 35 l-42 7 8 -29z"/>
<path d="M6395 2671 c-12 -12 -174 -111 -182 -111 -2 0 -16 -9 -30 -20 -14
-11 -32 -20 -39 -20 -17 0 -104 -59 -104 -71 0 -17 57 -9 75 11 10 11 23 20
29 20 7 0 18 9 26 20 8 11 22 20 32 20 9 0 23 8 30 18 7 9 24 23 38 30 14 7
47 28 74 47 61 42 81 35 124 -43 26 -49 34 -57 58 -55 15 1 37 11 49 23 12 11
31 20 43 20 15 0 22 6 22 20 0 26 -24 26 -41 0 -16 -24 -79 -30 -104 -10 -8 7
-25 35 -38 61 -21 47 -42 60 -62 40z"/>
<path d="M6660 2621 c-13 -25 1 -34 34 -21 22 8 26 7 26 -9 0 -11 3 -26 6 -34
3 -9 -3 -16 -15 -20 -20 -5 -30 -27 -13 -27 14 0 62 45 62 57 0 20 -51 73 -71
73 -10 0 -23 -9 -29 -19z"/>
<path d="M3720 2545 c0 -9 10 -19 23 -24 28 -11 31 -8 15 18 -15 24 -38 28
-38 6z"/>
<path d="M6365 2541 c-6 -11 9 -23 19 -14 9 9 7 23 -3 23 -6 0 -12 -4 -16 -9z"/>
<path d="M6320 2523 c-8 -4 -21 -14 -28 -25 -7 -10 -22 -18 -33 -18 -19 0 -37
-25 -26 -36 10 -10 47 7 47 22 0 8 10 14 26 14 28 0 59 24 49 40 -7 11 -12 11
-35 3z"/>
<path d="M3786 2512 c-2 -4 -2 -12 2 -18 10 -14 80 -54 95 -54 7 0 17 -8 24
-19 11 -17 63 -36 63 -22 -1 12 -26 37 -50 49 -45 23 -69 38 -88 55 -20 18
-38 22 -46 9z"/>
<path d="M6645 2500 c-10 -11 -23 -20 -29 -20 -6 0 -22 -9 -36 -20 -14 -11
-33 -20 -43 -20 -10 0 -20 -6 -23 -14 -3 -8 -19 -18 -36 -21 -38 -9 -51 7 -43
54 5 25 3 32 -7 29 -14 -5 -30 -88 -16 -88 4 0 8 -10 7 -22 0 -13 -3 -17 -6
-10 -7 17 -23 15 -23 -2 0 -8 -10 -16 -22 -18 -18 -3 -19 -5 -6 -15 12 -10 22
-9 53 7 22 11 45 20 52 20 7 0 13 8 13 18 0 11 9 17 27 19 15 0 34 10 43 20 8
11 30 26 48 34 17 7 32 17 32 21 0 5 6 8 14 8 18 0 40 27 28 34 -5 3 -17 -3
-27 -14z"/>
<path d="M6184 2440 c-12 -4 -24 -15 -27 -24 -4 -9 -12 -16 -19 -16 -7 0 -24
-9 -38 -20 -14 -11 -32 -20 -41 -20 -9 0 -24 -9 -34 -20 -11 -12 -34 -28 -52
-37 -32 -15 -34 -14 -52 8 -20 25 -19 39 3 39 7 0 26 12 42 26 16 14 40 30 53
35 15 6 21 13 15 19 -12 12 -96 -30 -130 -64 -22 -21 -23 -27 -13 -50 7 -14
16 -26 21 -26 4 0 8 -10 8 -23 0 -13 11 -34 25 -47 14 -13 25 -31 25 -39 1
-14 2 -13 11 2 5 9 20 17 32 17 23 0 47 17 47 32 0 14 -47 9 -60 -7 -17 -20
-30 -10 -30 24 0 24 8 33 55 57 30 16 55 34 55 39 0 6 16 17 35 24 19 7 35 17
35 22 0 5 10 9 23 9 25 0 47 17 47 37 0 15 -6 15 -36 3z"/>
<path d="M6372 2438 c-7 -7 -18 -13 -25 -13 -7 0 -13 -12 -15 -27 -2 -16 1
-28 7 -28 6 0 11 7 11 15 0 9 8 19 18 22 17 7 32 22 32 36 0 11 -15 8 -28 -5z"/>
<path d="M3843 2344 c-9 -25 12 -39 41 -26 21 9 26 8 31 -8 8 -25 32 -32 40
-12 3 9 2 18 -4 20 -5 2 -19 12 -32 23 -27 23 -67 25 -76 3z"/>
<path d="M6220 2350 c0 -5 -5 -10 -11 -10 -7 0 -20 -9 -30 -21 -17 -20 -17
-22 3 -55 26 -44 35 -49 53 -30 8 8 24 18 35 21 21 7 27 39 10 50 -6 4 -10 12
-9 18 3 29 -3 37 -26 37 -14 0 -25 -4 -25 -10z m35 -60 c0 -29 -34 -40 -54
-17 -18 23 -2 49 28 45 20 -2 26 -8 26 -28z"/>
<path d="M4286 2285 c-9 -13 -16 -28 -16 -34 0 -5 -7 -12 -16 -15 -13 -5 -14
-9 -4 -21 7 -8 18 -15 25 -15 7 0 18 -7 25 -15 7 -9 36 -27 64 -40 28 -13 57
-33 64 -45 7 -11 23 -20 36 -20 14 0 28 -5 32 -11 10 -16 66 -38 82 -32 7 3
18 16 23 29 11 31 39 30 69 -1 13 -14 29 -25 35 -25 7 0 23 -9 36 -21 13 -11
34 -29 47 -40 12 -10 29 -19 38 -19 30 0 59 -33 56 -62 -4 -34 -10 -35 -56 -3
-20 14 -40 25 -45 25 -4 0 -16 9 -26 20 -10 11 -28 20 -41 20 -13 0 -32 10
-44 22 -14 15 -23 19 -31 11 -7 -7 -3 -15 14 -26 13 -9 30 -22 38 -29 23 -21
157 -88 178 -88 10 0 30 11 44 25 28 28 26 61 -3 70 -10 3 -35 19 -55 35 -21
17 -44 30 -51 30 -8 0 -14 4 -14 9 0 5 -10 13 -22 17 -12 3 -42 21 -67 38 -69
48 -80 50 -109 21 -29 -30 -62 -27 -98 6 -11 10 -27 19 -36 19 -9 0 -21 7 -28
15 -7 8 -18 15 -25 15 -8 0 -27 11 -43 25 -17 14 -36 25 -44 25 -15 0 -38 19
-38 32 0 4 7 8 16 8 11 0 14 6 9 20 -8 26 12 26 45 0 14 -11 30 -20 35 -20 6
0 16 -9 23 -20 7 -11 19 -20 27 -20 8 0 35 -14 60 -31 25 -17 49 -28 52 -25 9
8 -25 43 -59 61 -15 8 -42 22 -59 31 -17 9 -33 22 -36 30 -3 8 -13 14 -23 14
-10 0 -23 7 -30 15 -18 22 -35 19 -54 -10z"/>
<path d="M5800 2300 c0 -5 -11 -10 -24 -10 -14 0 -37 -11 -53 -24 -15 -13 -46
-32 -68 -44 -42 -21 -85 -55 -85 -66 0 -15 46 7 71 35 14 16 29 26 32 23 8 -8
77 25 104 49 26 24 31 21 39 -20 5 -27 3 -31 -25 -41 -17 -6 -34 -18 -37 -27
-3 -8 -13 -15 -21 -15 -7 0 -25 -11 -38 -25 -14 -13 -25 -22 -25 -20 0 3 -21
-7 -46 -20 -59 -32 -81 -31 -96 0 -13 28 -51 34 -74 11 -21 -22 -18 -26 21
-26 29 0 37 -5 45 -25 5 -14 15 -25 22 -25 6 0 56 26 111 58 54 31 124 71 155
89 31 17 58 38 60 45 1 8 -9 27 -23 44 -14 16 -25 32 -25 37 0 4 -4 7 -10 7
-5 0 -10 -4 -10 -10z"/>
<path d="M3826 2265 c9 -14 20 -22 25 -19 14 9 10 31 -7 38 -29 11 -34 6 -18
-19z"/>
<path d="M6085 2270 c-3 -5 -3 -14 0 -20 3 -5 1 -10 -4 -10 -21 0 -11 -16 10
-17 28 -2 32 -8 25 -30 -6 -18 -16 -25 -82 -57 -17 -8 -42 -26 -55 -40 -13
-14 -32 -26 -41 -26 -9 0 -21 -6 -25 -13 -4 -8 -25 -17 -46 -20 -34 -5 -39 -3
-47 19 -10 24 -34 32 -45 14 -3 -6 0 -13 9 -16 8 -3 19 -19 25 -35 5 -16 14
-29 20 -29 17 0 57 18 72 32 23 23 85 58 102 58 9 0 22 8 29 18 7 10 28 24 46
31 17 7 32 17 32 22 0 5 6 9 14 9 7 0 20 7 27 16 12 14 10 19 -14 38 -15 12
-27 29 -27 38 0 20 -16 32 -25 18z"/>
<path d="M3881 2263 c0 -5 4 -16 8 -27 7 -17 8 -17 24 -1 10 9 15 21 12 26 -7
11 -45 12 -44 2z"/>
<path d="M4010 2251 c0 -14 5 -19 15 -14 17 6 15 25 -3 31 -7 2 -12 -5 -12
-17z"/>
<path d="M3982 2228 c-5 -7 -13 -23 -17 -36 -5 -19 -1 -25 27 -37 40 -19 59
-30 117 -73 25 -18 51 -30 58 -28 7 3 24 -6 37 -19 13 -13 36 -27 50 -31 14
-3 26 -11 26 -17 0 -15 29 25 30 40 0 8 -9 11 -28 7 -19 -4 -34 1 -51 15 -13
12 -30 21 -36 21 -7 0 -25 10 -41 22 -15 12 -34 23 -42 24 -8 2 -24 12 -36 23
-12 12 -28 21 -35 21 -21 0 -46 32 -43 57 4 26 -1 29 -16 11z"/>
<path d="M4207 2163 c-16 -15 -6 -43 14 -43 11 0 35 -16 52 -35 35 -40 59 -46
55 -12 -5 31 -17 47 -36 47 -9 0 -30 11 -46 25 -33 28 -30 27 -39 18z"/>
<path d="M5873 2146 c-6 -8 -9 -17 -6 -20 4 -3 -1 -6 -10 -6 -27 0 -31 -1 -45
-12 -8 -7 -9 -15 -3 -21 6 -6 20 -2 39 12 17 11 40 21 51 21 14 0 21 6 21 20
0 23 -29 27 -47 6z"/>
<path d="M5401 2066 c-7 -8 -40 -28 -74 -45 -34 -16 -82 -48 -107 -70 -45 -41
-45 -41 -25 -59 12 -9 24 -25 28 -34 9 -26 57 -24 64 2 3 13 14 20 29 20 13 0
29 9 36 20 7 11 20 20 29 20 20 0 55 37 45 48 -4 4 -13 0 -20 -8 -15 -20 -52
-40 -72 -40 -9 0 -22 -7 -28 -14 -6 -8 -22 -18 -36 -21 -20 -5 -27 -1 -37 21
-7 15 -12 28 -10 28 1 1 12 7 24 14 13 6 31 12 41 12 9 0 25 8 34 18 9 9 37
32 62 51 43 31 57 51 37 51 -5 0 -14 -6 -20 -14z"/>
<path d="M4390 2025 c0 -14 45 -40 63 -37 4 1 7 -2 7 -8 0 -5 9 -10 20 -10 10
0 24 -9 30 -19 5 -11 18 -22 29 -26 17 -5 34 -48 23 -59 -2 -3 -18 2 -34 10
-16 8 -33 12 -38 9 -5 -3 -11 3 -14 13 -4 11 -22 22 -49 28 -40 9 -42 10 -39
43 3 24 0 32 -10 29 -7 -3 -12 -13 -10 -22 2 -9 -4 -19 -12 -22 -8 -3 -12 -12
-9 -20 3 -9 12 -13 20 -10 7 3 16 -1 20 -10 6 -16 63 -50 63 -37 0 4 7 -3 16
-15 8 -12 23 -22 33 -22 11 0 22 -7 25 -16 6 -15 10 -14 31 6 14 13 25 29 25
36 0 6 7 14 15 18 22 8 18 34 -7 47 -13 7 -25 15 -28 19 -11 13 -78 50 -93 50
-9 0 -19 9 -22 20 -8 24 -55 28 -55 5z"/>
<path d="M5665 2015 c-16 -14 -35 -25 -40 -25 -6 0 -17 -6 -23 -12 -7 -7 -18
-13 -24 -13 -14 0 -34 -32 -26 -40 10 -10 48 5 48 19 0 7 16 18 35 26 19 8 35
17 35 22 0 11 47 10 54 -1 3 -5 1 -23 -5 -40 -8 -22 -17 -31 -34 -31 -28 0
-53 -26 -38 -41 12 -12 63 15 63 32 0 5 11 9 24 9 41 0 41 42 -1 88 -7 7 -13
18 -13 23 0 16 -24 9 -55 -16z"/>
<path d="M5446 1985 c-3 -9 0 -15 9 -15 8 0 15 7 15 15 0 8 -4 15 -9 15 -5 0
-11 -7 -15 -15z"/>
<path d="M5523 1923 c-7 -3 -13 -9 -13 -14 0 -10 53 -88 60 -89 15 -1 70 42
65 50 -8 13 -42 13 -50 0 -9 -15 -35 8 -35 31 0 21 -10 28 -27 22z"/>
<path d="M4660 1854 c-6 -14 -10 -28 -10 -31 0 -4 -7 -15 -16 -25 -14 -14 -14
-20 -4 -33 7 -8 16 -13 20 -10 4 2 15 -4 25 -15 23 -25 45 -26 45 -1 0 11 5
21 12 23 6 2 12 13 13 24 2 10 6 27 10 38 6 14 4 17 -11 14 -13 -2 -20 -13
-22 -36 -3 -24 -8 -32 -23 -32 -11 0 -24 10 -29 23 -7 17 -4 26 16 42 29 25
31 45 4 45 -13 0 -24 -10 -30 -26z"/>
<path d="M4977 1873 c-4 -3 -7 -15 -7 -25 0 -10 -6 -18 -14 -18 -28 0 -4 -40
45 -75 57 -41 72 -43 93 -13 9 12 16 19 16 15 0 -4 9 -3 20 3 11 6 20 17 20
25 0 8 5 15 10 15 6 0 10 7 10 15 0 8 -4 15 -9 15 -5 0 -12 11 -15 25 -7 28
-41 34 -77 13 -17 -10 -23 -10 -26 0 -5 13 -55 17 -66 5z m153 -45 c0 -5 0
-12 0 -16 0 -5 -9 -18 -19 -29 -26 -27 -88 -29 -96 -3 -3 10 -12 21 -20 24 -8
3 -15 10 -15 16 0 6 5 8 10 5 6 -3 10 -2 10 3 0 5 29 8 65 8 36 -1 65 -4 65
-8z"/>
<path d="M5398 1853 c-6 -7 -17 -13 -24 -13 -21 0 -17 -44 6 -65 11 -10 20
-24 20 -32 0 -7 7 -13 15 -13 8 0 15 7 15 15 0 9 9 15 23 15 36 0 47 17 34 51
-6 16 -15 29 -19 29 -4 0 -8 7 -8 15 0 18 -46 17 -62 -2z m52 -33 c12 -7 12
-12 -4 -29 -25 -28 -46 -27 -46 2 0 37 19 47 50 27z"/>
<path d="M4806 1756 c-9 -14 -16 -28 -16 -31 0 -10 28 -5 32 7 8 22 37 15 73
-18 21 -19 42 -34 48 -34 5 0 32 -14 59 -31 l50 -30 52 28 c123 66 167 96 157
106 -6 6 -27 -2 -63 -25 -29 -20 -73 -45 -97 -58 -43 -21 -44 -21 -78 -3 -19
10 -41 26 -50 36 -9 9 -24 17 -33 17 -9 0 -25 9 -35 20 -10 11 -28 20 -40 20
-11 0 -26 5 -32 11 -7 7 -15 2 -27 -15z"/>
<path d="M5283 1769 c-14 -14 -5 -46 13 -53 37 -14 13 -34 -145 -121 -20 -11
-42 -26 -49 -32 -21 -21 -75 -15 -102 10 -14 12 -52 35 -85 52 -33 16 -68 38
-77 47 -10 10 -25 18 -33 18 -8 0 -15 5 -15 10 0 6 -7 10 -15 10 -37 0 2 -37
100 -96 33 -19 62 -40 63 -45 2 -5 10 -9 18 -9 8 0 31 -9 51 -20 47 -25 64
-25 94 -1 13 10 34 21 46 25 13 4 29 13 36 19 18 17 45 33 95 59 23 12 42 26
42 30 0 4 7 8 15 8 8 0 15 6 15 14 0 7 -7 19 -15 26 -8 7 -15 17 -15 22 0 18
-27 37 -37 27z"/>
</g>
</svg>
